<svg xmlns="http://www.w3.org/2000/svg" xmlns:xlink="http://www.w3.org/1999/xlink" contentStyleType="text/css" height="2063px" preserveAspectRatio="none" style="width:894px;height:2063px;background:#FFFFFF;" version="1.1" viewBox="0 0 894 2063" width="894px" zoomAndPan="magnify"><defs/><g><rect fill="none" height="20.9531" style="stroke:none;stroke-width:1.0;" width="861.7522" x="15" y="12.7451"/><ellipse cx="194.0449" cy="48.6982" fill="#222222" rx="10" ry="10" style="stroke:#222222;stroke-width:1.0;"/><rect fill="#F1F1F1" height="33.9688" rx="12.5" ry="12.5" style="stroke:#181818;stroke-width:0.5;" width="136.502" x="125.7939" y="175.5029"/><text fill="#000000" font-family="sans-serif" font-size="12" lengthAdjust="spacing" textLength="116.502" x="135.7939" y="196.6416">Voer initialisatie uit</text><rect fill="#F1F1F1" height="33.9688" rx="12.5" ry="12.5" style="stroke:#181818;stroke-width:0.5;" width="211.1504" x="88.4697" y="244.4717"/><text fill="#000000" font-family="sans-serif" font-size="12" lengthAdjust="spacing" textLength="191.1504" x="98.4697" y="265.6104">Markeer initialisatie als voltooid</text><polygon fill="#F1F1F1" points="137.2725,127.1006,250.8174,127.1006,262.8174,139.1006,250.8174,151.1006,137.2725,151.1006,125.2725,139.1006,137.2725,127.1006" style="stroke:#181818;stroke-width:0.5;"/><text fill="#000000" font-family="sans-serif" font-size="11" lengthAdjust="spacing" textLength="20.5068" x="198.0449" y="161.311">nee</text><text fill="#000000" font-family="sans-serif" font-size="11" lengthAdjust="spacing" textLength="113.5449" x="137.2725" y="142.9087">Initialisatie voltooid?</text><polygon fill="#F1F1F1" points="194.0449,298.4404,206.0449,310.4404,194.0449,322.4404,182.0449,310.4404,194.0449,298.4404" style="stroke:#181818;stroke-width:0.5;"/><rect fill="#F1F1F1" height="33.9688" rx="12.5" ry="12.5" style="stroke:#181818;stroke-width:0.5;" width="236.6621" x="75.7139" y="390.8428"/><text fill="#000000" font-family="sans-serif" font-size="12" lengthAdjust="spacing" textLength="216.6621" x="85.7139" y="411.9814">Toon status: 'Voer de zaaglengte in'</text><polygon fill="#F1F1F1" points="70.679,342.4404,317.4109,342.4404,329.4109,354.4404,317.4109,366.4404,70.679,366.4404,58.679,354.4404,70.679,342.4404" style="stroke:#181818;stroke-width:0.5;"/><text fill="#000000" font-family="sans-serif" font-size="11" lengthAdjust="spacing" textLength="9.7969" x="198.0449" y="376.6509">ja</text><text fill="#000000" font-family="sans-serif" font-size="11" lengthAdjust="spacing" textLength="246.7319" x="70.679" y="358.2485">Initialisatie voltooid en aanvoer niet gestart?</text><polygon fill="#F1F1F1" points="194.0449,444.8115,206.0449,456.8115,194.0449,468.8115,182.0449,456.8115,194.0449,444.8115" style="stroke:#181818;stroke-width:0.5;"/><rect fill="#F1F1F1" height="33.9688" rx="12.5" ry="12.5" style="stroke:#181818;stroke-width:0.5;" width="114.793" x="136.6484" y="537.2139"/><text fill="#000000" font-family="sans-serif" font-size="12" lengthAdjust="spacing" textLength="94.793" x="146.6484" y="558.3525">Simuleer invoer</text><rect fill="#F1F1F1" height="33.9688" rx="12.5" ry="12.5" style="stroke:#181818;stroke-width:0.5;" width="195.6172" x="96.2363" y="606.1826"/><text fill="#000000" font-family="sans-serif" font-size="12" lengthAdjust="spacing" textLength="175.6172" x="106.2363" y="627.3213">Reset zaag- en uitvoersensor</text><polygon fill="#F1F1F1" points="78.3435,488.8115,309.7463,488.8115,321.7463,500.8115,309.7463,512.8115,78.3435,512.8115,66.3435,500.8115,78.3435,488.8115" style="stroke:#181818;stroke-width:0.5;"/><text fill="#000000" font-family="sans-serif" font-size="11" lengthAdjust="spacing" textLength="9.7969" x="198.0449" y="523.022">ja</text><text fill="#000000" font-family="sans-serif" font-size="11" lengthAdjust="spacing" textLength="231.4028" x="78.3435" y="504.6196">Zaaglengte ingesteld en aanvoer gestart?</text><polygon fill="#F1F1F1" points="194.0449,660.1514,206.0449,672.1514,194.0449,684.1514,182.0449,672.1514,194.0449,660.1514" style="stroke:#181818;stroke-width:0.5;"/><rect fill="#F1F1F1" height="33.9688" rx="12.5" ry="12.5" style="stroke:#181818;stroke-width:0.5;" width="151.7305" x="118.1797" y="752.5537"/><text fill="#000000" font-family="sans-serif" font-size="12" lengthAdjust="spacing" textLength="131.7305" x="128.1797" y="773.6924">Zet aanvoer in positie</text><rect fill="#F1F1F1" height="33.9688" rx="12.5" ry="12.5" style="stroke:#181818;stroke-width:0.5;" width="100.168" x="143.9609" y="806.5225"/><text fill="#000000" font-family="sans-serif" font-size="12" lengthAdjust="spacing" textLength="80.168" x="153.9609" y="827.6611">Stop aanvoer</text><rect fill="#F1F1F1" height="33.9688" rx="12.5" ry="12.5" style="stroke:#181818;stroke-width:0.5;" width="342.6113" x="22.7393" y="860.4912"/><text fill="#000000" font-family="sans-serif" font-size="12" lengthAdjust="spacing" textLength="322.6113" x="32.7393" y="881.6299">Toon status: 'Aanvoer in positie, druk op: start zagen'</text><polygon fill="#F1F1F1" points="42,704.1514,346.0898,704.1514,358.0898,716.1514,346.0898,728.1514,42,728.1514,30,716.1514,42,704.1514" style="stroke:#181818;stroke-width:0.5;"/><text fill="#000000" font-family="sans-serif" font-size="11" lengthAdjust="spacing" textLength="9.7969" x="198.0449" y="738.3618">ja</text><text fill="#000000" font-family="sans-serif" font-size="11" lengthAdjust="spacing" textLength="304.0898" x="42" y="719.9595">Zaaglengte bereikt aanvoerpositie en aanvoer gereed?</text><polygon fill="#F1F1F1" points="194.0449,914.46,206.0449,926.46,194.0449,938.46,182.0449,926.46,194.0449,914.46" style="stroke:#181818;stroke-width:0.5;"/><ellipse cx="194.0449" cy="969.46" fill="none" rx="11" ry="11" style="stroke:#222222;stroke-width:1.0;"/><ellipse cx="194.0449" cy="969.46" fill="#222222" rx="6" ry="6" style="stroke:#222222;stroke-width:1.0;"/><polygon fill="#F1F1F1" points="123.1196,78.6982,264.9702,78.6982,276.9702,90.6982,264.9702,102.6982,123.1196,102.6982,111.1196,90.6982,123.1196,78.6982" style="stroke:#181818;stroke-width:0.5;"/><text fill="#000000" font-family="sans-serif" font-size="11" lengthAdjust="spacing" textLength="9.7969" x="198.0449" y="112.9087">ja</text><text fill="#000000" font-family="sans-serif" font-size="11" lengthAdjust="spacing" textLength="141.8506" x="123.1196" y="94.5063">Systeem is ingeschakeld?</text><line style="stroke:#000000;stroke-width:1.5;" x1="15" x2="15" y1="12.7451" y2="2047.7568"/><ellipse cx="671.3601" cy="1000.46" fill="#222222" rx="10" ry="10" style="stroke:#222222;stroke-width:1.0;"/><polygon fill="#F1F1F1" points="600.4348,1030.46,742.2854,1030.46,754.2854,1042.46,742.2854,1054.46,600.4348,1054.46,588.4348,1042.46,600.4348,1030.46" style="stroke:#181818;stroke-width:0.5;"/><text fill="#000000" font-family="sans-serif" font-size="11" lengthAdjust="spacing" textLength="141.8506" x="600.4348" y="1046.2681">Systeem is ingeschakeld?</text><text fill="#000000" font-family="sans-serif" font-size="11" lengthAdjust="spacing" textLength="9.7969" x="578.6379" y="1039.8657">ja</text><text fill="#000000" font-family="sans-serif" font-size="11" lengthAdjust="spacing" textLength="20.5068" x="754.2854" y="1039.8657">nee</text><rect fill="#F1F1F1" height="33.9688" rx="12.5" ry="12.5" style="stroke:#181818;stroke-width:0.5;" width="249.8809" x="424.2625" y="1112.8623"/><text fill="#000000" font-family="sans-serif" font-size="12" lengthAdjust="spacing" textLength="229.8809" x="434.2625" y="1134.001">Toon status: 'Voer eerst een lengte in'</text><polygon fill="#F1F1F1" points="439.3506,1064.46,659.0552,1064.46,671.0552,1076.46,659.0552,1088.46,439.3506,1088.46,427.3506,1076.46,439.3506,1064.46" style="stroke:#181818;stroke-width:0.5;"/><text fill="#000000" font-family="sans-serif" font-size="11" lengthAdjust="spacing" textLength="9.7969" x="553.2029" y="1098.6704">ja</text><text fill="#000000" font-family="sans-serif" font-size="11" lengthAdjust="spacing" textLength="219.7046" x="439.3506" y="1080.2681">Aanvoer in positie en zaag niet gestart?</text><polygon fill="#F1F1F1" points="549.2029,1166.8311,561.2029,1178.8311,549.2029,1190.8311,537.2029,1178.8311,549.2029,1166.8311" style="stroke:#181818;stroke-width:0.5;"/><rect fill="#F1F1F1" height="33.9688" rx="12.5" ry="12.5" style="stroke:#181818;stroke-width:0.5;" width="117.7637" x="490.321" y="1259.2334"/><text fill="#000000" font-family="sans-serif" font-size="12" lengthAdjust="spacing" textLength="97.7637" x="500.321" y="1280.3721">Start zaagmotor</text><rect fill="#F1F1F1" height="33.9688" rx="12.5" ry="12.5" style="stroke:#181818;stroke-width:0.5;" width="172.7188" x="462.8435" y="1313.2021"/><text fill="#000000" font-family="sans-serif" font-size="12" lengthAdjust="spacing" textLength="152.7188" x="472.8435" y="1334.3408">Toon status: 'Zaag actief'</text><rect fill="#F1F1F1" height="33.9688" rx="12.5" ry="12.5" style="stroke:#181818;stroke-width:0.5;" width="188.7559" x="454.825" y="1367.1709"/><text fill="#000000" font-family="sans-serif" font-size="12" lengthAdjust="spacing" textLength="168.7559" x="464.825" y="1388.3096">Start timer voor 5 seconden</text><rect fill="#F1F1F1" height="33.9688" rx="12.5" ry="12.5" style="stroke:#181818;stroke-width:0.5;" width="167.2754" x="465.5652" y="1469.542"/><text fill="#000000" font-family="sans-serif" font-size="12" lengthAdjust="spacing" textLength="147.2754" x="475.5652" y="1490.6807">Bereik eindaanslag zaag</text><polygon fill="#F1F1F1" points="501.2095,1421.1396,597.1963,1421.1396,609.1963,1433.1396,597.1963,1445.1396,501.2095,1445.1396,489.2095,1433.1396,501.2095,1421.1396" style="stroke:#181818;stroke-width:0.5;"/><text fill="#000000" font-family="sans-serif" font-size="11" lengthAdjust="spacing" textLength="9.7969" x="553.2029" y="1455.3501">ja</text><text fill="#000000" font-family="sans-serif" font-size="11" lengthAdjust="spacing" textLength="95.9868" x="501.2095" y="1436.9478">Timer afgelopen?</text><polygon fill="#F1F1F1" points="549.2029,1523.5107,561.2029,1535.5107,549.2029,1547.5107,537.2029,1535.5107,549.2029,1523.5107" style="stroke:#181818;stroke-width:0.5;"/><rect fill="#F1F1F1" height="33.9688" rx="12.5" ry="12.5" style="stroke:#181818;stroke-width:0.5;" width="115.7305" x="491.3376" y="1615.9131"/><text fill="#000000" font-family="sans-serif" font-size="12" lengthAdjust="spacing" textLength="95.7305" x="501.3376" y="1637.0518">Stop zaagmotor</text><rect fill="#F1F1F1" height="33.9688" rx="12.5" ry="12.5" style="stroke:#181818;stroke-width:0.5;" width="123.3711" x="487.5173" y="1669.8818"/><text fill="#000000" font-family="sans-serif" font-size="12" lengthAdjust="spacing" textLength="103.3711" x="497.5173" y="1691.0205">Reset zaagstatus</text><rect fill="#F1F1F1" height="33.9688" rx="12.5" ry="12.5" style="stroke:#181818;stroke-width:0.5;" width="182.0469" x="458.1794" y="1723.8506"/><text fill="#000000" font-family="sans-serif" font-size="12" lengthAdjust="spacing" textLength="162.0469" x="468.1794" y="1744.9893">Markeer zagen als voltooid</text><rect fill="#F1F1F1" height="33.9688" rx="12.5" ry="12.5" style="stroke:#181818;stroke-width:0.5;" width="101.9551" x="498.2253" y="1777.8193"/><text fill="#000000" font-family="sans-serif" font-size="12" lengthAdjust="spacing" textLength="81.9551" x="508.2253" y="1798.958">Stop de timer</text><rect fill="#F1F1F1" height="33.9688" rx="12.5" ry="12.5" style="stroke:#181818;stroke-width:0.5;" width="163.1211" x="467.6423" y="1831.7881"/><text fill="#000000" font-family="sans-serif" font-size="12" lengthAdjust="spacing" textLength="143.1211" x="477.6423" y="1852.9268">Reset eindaanslag zaag</text><polygon fill="#F1F1F1" points="476.8167,1567.5107,621.5891,1567.5107,633.5891,1579.5107,621.5891,1591.5107,476.8167,1591.5107,464.8167,1579.5107,476.8167,1567.5107" style="stroke:#181818;stroke-width:0.5;"/><text fill="#000000" font-family="sans-serif" font-size="11" lengthAdjust="spacing" textLength="9.7969" x="553.2029" y="1601.7212">ja</text><text fill="#000000" font-family="sans-serif" font-size="11" lengthAdjust="spacing" textLength="144.7725" x="476.8167" y="1583.3188">Eindaanslag zaag bereikt?</text><polygon fill="#F1F1F1" points="549.2029,1885.7568,561.2029,1897.7568,549.2029,1909.7568,537.2029,1897.7568,549.2029,1885.7568" style="stroke:#181818;stroke-width:0.5;"/><polygon fill="#F1F1F1" points="451.6531,1210.8311,646.7527,1210.8311,658.7527,1222.8311,646.7527,1234.8311,451.6531,1234.8311,439.6531,1222.8311,451.6531,1210.8311" style="stroke:#181818;stroke-width:0.5;"/><text fill="#000000" font-family="sans-serif" font-size="11" lengthAdjust="spacing" textLength="9.7969" x="553.2029" y="1245.0415">ja</text><text fill="#000000" font-family="sans-serif" font-size="11" lengthAdjust="spacing" textLength="195.0996" x="451.6531" y="1226.6392">Aanvoer in positie en zaag gestart?</text><polygon fill="#F1F1F1" points="549.2029,1929.7568,561.2029,1941.7568,549.2029,1953.7568,537.2029,1941.7568,549.2029,1929.7568" style="stroke:#181818;stroke-width:0.5;"/><rect fill="#F1F1F1" height="33.9688" rx="12.5" ry="12.5" style="stroke:#181818;stroke-width:0.5;" width="154.748" x="716.1433" y="1064.46"/><text fill="#000000" font-family="sans-serif" font-size="12" lengthAdjust="spacing" textLength="134.748" x="726.1433" y="1085.5986">Schakel zaagmotor uit</text><polygon fill="#F1F1F1" points="671.3601,1959.7568,683.3601,1971.7568,671.3601,1983.7568,659.3601,1971.7568,671.3601,1959.7568" style="stroke:#181818;stroke-width:0.5;"/><ellipse cx="671.3601" cy="2014.7568" fill="none" rx="11" ry="11" style="stroke:#222222;stroke-width:1.0;"/><ellipse cx="671.3601" cy="2014.7568" fill="#222222" rx="6" ry="6" style="stroke:#222222;stroke-width:1.0;"/><line style="stroke:#000000;stroke-width:1.5;" x1="412.3506" x2="412.3506" y1="12.7451" y2="2047.7568"/><line style="stroke:#000000;stroke-width:1.5;" x1="874.8914" x2="874.8914" y1="12.7451" y2="2047.7568"/><line style="stroke:#181818;stroke-width:1.0;" x1="194.0449" x2="194.0449" y1="209.4717" y2="244.4717"/><polygon fill="#181818" points="190.0449,234.4717,194.0449,244.4717,198.0449,234.4717,194.0449,238.4717" style="stroke:#181818;stroke-width:1.0;"/><line style="stroke:#181818;stroke-width:1.0;" x1="194.0449" x2="194.0449" y1="151.1006" y2="175.5029"/><polygon fill="#181818" points="190.0449,165.5029,194.0449,175.5029,198.0449,165.5029,194.0449,169.5029" style="stroke:#181818;stroke-width:1.0;"/><line style="stroke:#181818;stroke-width:1.0;" x1="262.8174" x2="309.6201" y1="139.1006" y2="139.1006"/><polygon fill="#181818" points="305.6201,216.9717,309.6201,226.9717,313.6201,216.9717,309.6201,220.9717" style="stroke:#181818;stroke-width:1.0;"/><line style="stroke:#181818;stroke-width:1.0;" x1="309.6201" x2="309.6201" y1="139.1006" y2="310.4404"/><line style="stroke:#181818;stroke-width:1.0;" x1="309.6201" x2="206.0449" y1="310.4404" y2="310.4404"/><polygon fill="#181818" points="216.0449,306.4404,206.0449,310.4404,216.0449,314.4404,212.0449,310.4404" style="stroke:#181818;stroke-width:1.0;"/><line style="stroke:#181818;stroke-width:1.0;" x1="194.0449" x2="194.0449" y1="278.4404" y2="298.4404"/><polygon fill="#181818" points="190.0449,288.4404,194.0449,298.4404,198.0449,288.4404,194.0449,292.4404" style="stroke:#181818;stroke-width:1.0;"/><line style="stroke:#181818;stroke-width:1.0;" x1="194.0449" x2="194.0449" y1="366.4404" y2="390.8428"/><polygon fill="#181818" points="190.0449,380.8428,194.0449,390.8428,198.0449,380.8428,194.0449,384.8428" style="stroke:#181818;stroke-width:1.0;"/><line style="stroke:#181818;stroke-width:1.0;" x1="329.4109" x2="341.4109" y1="354.4404" y2="354.4404"/><polygon fill="#181818" points="337.4109,397.8271,341.4109,407.8271,345.4109,397.8271,341.4109,401.8271" style="stroke:#181818;stroke-width:1.0;"/><line style="stroke:#181818;stroke-width:1.0;" x1="341.4109" x2="341.4109" y1="354.4404" y2="456.8115"/><line style="stroke:#181818;stroke-width:1.0;" x1="341.4109" x2="206.0449" y1="456.8115" y2="456.8115"/><polygon fill="#181818" points="216.0449,452.8115,206.0449,456.8115,216.0449,460.8115,212.0449,456.8115" style="stroke:#181818;stroke-width:1.0;"/><line style="stroke:#181818;stroke-width:1.0;" x1="194.0449" x2="194.0449" y1="424.8115" y2="444.8115"/><polygon fill="#181818" points="190.0449,434.8115,194.0449,444.8115,198.0449,434.8115,194.0449,438.8115" style="stroke:#181818;stroke-width:1.0;"/><line style="stroke:#181818;stroke-width:1.0;" x1="194.0449" x2="194.0449" y1="322.4404" y2="342.4404"/><polygon fill="#181818" points="190.0449,332.4404,194.0449,342.4404,198.0449,332.4404,194.0449,336.4404" style="stroke:#181818;stroke-width:1.0;"/><line style="stroke:#181818;stroke-width:1.0;" x1="194.0449" x2="194.0449" y1="571.1826" y2="606.1826"/><polygon fill="#181818" points="190.0449,596.1826,194.0449,606.1826,198.0449,596.1826,194.0449,600.1826" style="stroke:#181818;stroke-width:1.0;"/><line style="stroke:#181818;stroke-width:1.0;" x1="194.0449" x2="194.0449" y1="512.8115" y2="537.2139"/><polygon fill="#181818" points="190.0449,527.2139,194.0449,537.2139,198.0449,527.2139,194.0449,531.2139" style="stroke:#181818;stroke-width:1.0;"/><line style="stroke:#181818;stroke-width:1.0;" x1="321.7463" x2="333.7463" y1="500.8115" y2="500.8115"/><polygon fill="#181818" points="329.7463,578.6826,333.7463,588.6826,337.7463,578.6826,333.7463,582.6826" style="stroke:#181818;stroke-width:1.0;"/><line style="stroke:#181818;stroke-width:1.0;" x1="333.7463" x2="333.7463" y1="500.8115" y2="672.1514"/><line style="stroke:#181818;stroke-width:1.0;" x1="333.7463" x2="206.0449" y1="672.1514" y2="672.1514"/><polygon fill="#181818" points="216.0449,668.1514,206.0449,672.1514,216.0449,676.1514,212.0449,672.1514" style="stroke:#181818;stroke-width:1.0;"/><line style="stroke:#181818;stroke-width:1.0;" x1="194.0449" x2="194.0449" y1="640.1514" y2="660.1514"/><polygon fill="#181818" points="190.0449,650.1514,194.0449,660.1514,198.0449,650.1514,194.0449,654.1514" style="stroke:#181818;stroke-width:1.0;"/><line style="stroke:#181818;stroke-width:1.0;" x1="194.0449" x2="194.0449" y1="468.8115" y2="488.8115"/><polygon fill="#181818" points="190.0449,478.8115,194.0449,488.8115,198.0449,478.8115,194.0449,482.8115" style="stroke:#181818;stroke-width:1.0;"/><line style="stroke:#181818;stroke-width:1.0;" x1="194.0449" x2="194.0449" y1="786.5225" y2="806.5225"/><polygon fill="#181818" points="190.0449,796.5225,194.0449,806.5225,198.0449,796.5225,194.0449,800.5225" style="stroke:#181818;stroke-width:1.0;"/><line style="stroke:#181818;stroke-width:1.0;" x1="194.0449" x2="194.0449" y1="840.4912" y2="860.4912"/><polygon fill="#181818" points="190.0449,850.4912,194.0449,860.4912,198.0449,850.4912,194.0449,854.4912" style="stroke:#181818;stroke-width:1.0;"/><line style="stroke:#181818;stroke-width:1.0;" x1="194.0449" x2="194.0449" y1="728.1514" y2="752.5537"/><polygon fill="#181818" points="190.0449,742.5537,194.0449,752.5537,198.0449,742.5537,194.0449,746.5537" style="stroke:#181818;stroke-width:1.0;"/><line style="stroke:#181818;stroke-width:1.0;" x1="358.0898" x2="375.3506" y1="716.1514" y2="716.1514"/><polygon fill="#181818" points="371.3506,813.5068,375.3506,823.5068,379.3506,813.5068,375.3506,817.5068" style="stroke:#181818;stroke-width:1.0;"/><line style="stroke:#181818;stroke-width:1.0;" x1="375.3506" x2="375.3506" y1="716.1514" y2="926.46"/><line style="stroke:#181818;stroke-width:1.0;" x1="375.3506" x2="206.0449" y1="926.46" y2="926.46"/><polygon fill="#181818" points="216.0449,922.46,206.0449,926.46,216.0449,930.46,212.0449,926.46" style="stroke:#181818;stroke-width:1.0;"/><line style="stroke:#181818;stroke-width:1.0;" x1="194.0449" x2="194.0449" y1="894.46" y2="914.46"/><polygon fill="#181818" points="190.0449,904.46,194.0449,914.46,198.0449,904.46,194.0449,908.46" style="stroke:#181818;stroke-width:1.0;"/><line style="stroke:#181818;stroke-width:1.0;" x1="194.0449" x2="194.0449" y1="684.1514" y2="704.1514"/><polygon fill="#181818" points="190.0449,694.1514,194.0449,704.1514,198.0449,694.1514,194.0449,698.1514" style="stroke:#181818;stroke-width:1.0;"/><line style="stroke:#181818;stroke-width:1.0;" x1="194.0449" x2="194.0449" y1="938.46" y2="958.46"/><polygon fill="#181818" points="190.0449,948.46,194.0449,958.46,198.0449,948.46,194.0449,952.46" style="stroke:#181818;stroke-width:1.0;"/><line style="stroke:#181818;stroke-width:1.0;" x1="194.0449" x2="194.0449" y1="102.6982" y2="127.1006"/><polygon fill="#181818" points="190.0449,117.1006,194.0449,127.1006,198.0449,117.1006,194.0449,121.1006" style="stroke:#181818;stroke-width:1.0;"/><line style="stroke:#181818;stroke-width:1.0;" x1="276.9702" x2="393.3506" y1="90.6982" y2="90.6982"/><polygon fill="#181818" points="389.3506,1073.4287,393.3506,1083.4287,397.3506,1073.4287,393.3506,1077.4287" style="stroke:#181818;stroke-width:1.0;"/><line style="stroke:#181818;stroke-width:1.0;" x1="393.3506" x2="393.3506" y1="90.6982" y2="2047.7568"/><line style="stroke:#181818;stroke-width:1.0;" x1="393.3506" x2="194.0449" y1="2047.7568" y2="2047.7568"/><polygon fill="#181818" points="204.0449,2043.7568,194.0449,2047.7568,204.0449,2051.7568,200.0449,2047.7568" style="stroke:#181818;stroke-width:1.0;"/><line style="stroke:#181818;stroke-width:1.0;" x1="194.0449" x2="194.0449" y1="58.6982" y2="78.6982"/><polygon fill="#181818" points="190.0449,68.6982,194.0449,78.6982,198.0449,68.6982,194.0449,72.6982" style="stroke:#181818;stroke-width:1.0;"/><line style="stroke:#181818;stroke-width:1.0;" x1="549.2029" x2="549.2029" y1="1088.46" y2="1112.8623"/><polygon fill="#181818" points="545.2029,1102.8623,549.2029,1112.8623,553.2029,1102.8623,549.2029,1106.8623" style="stroke:#181818;stroke-width:1.0;"/><line style="stroke:#181818;stroke-width:1.0;" x1="671.0552" x2="684.1433" y1="1076.46" y2="1076.46"/><polygon fill="#181818" points="680.1433,1119.8467,684.1433,1129.8467,688.1433,1119.8467,684.1433,1123.8467" style="stroke:#181818;stroke-width:1.0;"/><line style="stroke:#181818;stroke-width:1.0;" x1="684.1433" x2="684.1433" y1="1076.46" y2="1178.8311"/><line style="stroke:#181818;stroke-width:1.0;" x1="684.1433" x2="561.2029" y1="1178.8311" y2="1178.8311"/><polygon fill="#181818" points="571.2029,1174.8311,561.2029,1178.8311,571.2029,1182.8311,567.2029,1178.8311" style="stroke:#181818;stroke-width:1.0;"/><line style="stroke:#181818;stroke-width:1.0;" x1="549.2029" x2="549.2029" y1="1146.8311" y2="1166.8311"/><polygon fill="#181818" points="545.2029,1156.8311,549.2029,1166.8311,553.2029,1156.8311,549.2029,1160.8311" style="stroke:#181818;stroke-width:1.0;"/><line style="stroke:#181818;stroke-width:1.0;" x1="549.2029" x2="549.2029" y1="1293.2021" y2="1313.2021"/><polygon fill="#181818" points="545.2029,1303.2021,549.2029,1313.2021,553.2029,1303.2021,549.2029,1307.2021" style="stroke:#181818;stroke-width:1.0;"/><line style="stroke:#181818;stroke-width:1.0;" x1="549.2029" x2="549.2029" y1="1347.1709" y2="1367.1709"/><polygon fill="#181818" points="545.2029,1357.1709,549.2029,1367.1709,553.2029,1357.1709,549.2029,1361.1709" style="stroke:#181818;stroke-width:1.0;"/><line style="stroke:#181818;stroke-width:1.0;" x1="549.2029" x2="549.2029" y1="1445.1396" y2="1469.542"/><polygon fill="#181818" points="545.2029,1459.542,549.2029,1469.542,553.2029,1459.542,549.2029,1463.542" style="stroke:#181818;stroke-width:1.0;"/><line style="stroke:#181818;stroke-width:1.0;" x1="609.1963" x2="642.8406" y1="1433.1396" y2="1433.1396"/><polygon fill="#181818" points="638.8406,1476.5264,642.8406,1486.5264,646.8406,1476.5264,642.8406,1480.5264" style="stroke:#181818;stroke-width:1.0;"/><line style="stroke:#181818;stroke-width:1.0;" x1="642.8406" x2="642.8406" y1="1433.1396" y2="1535.5107"/><line style="stroke:#181818;stroke-width:1.0;" x1="642.8406" x2="561.2029" y1="1535.5107" y2="1535.5107"/><polygon fill="#181818" points="571.2029,1531.5107,561.2029,1535.5107,571.2029,1539.5107,567.2029,1535.5107" style="stroke:#181818;stroke-width:1.0;"/><line style="stroke:#181818;stroke-width:1.0;" x1="549.2029" x2="549.2029" y1="1503.5107" y2="1523.5107"/><polygon fill="#181818" points="545.2029,1513.5107,549.2029,1523.5107,553.2029,1513.5107,549.2029,1517.5107" style="stroke:#181818;stroke-width:1.0;"/><line style="stroke:#181818;stroke-width:1.0;" x1="549.2029" x2="549.2029" y1="1401.1396" y2="1421.1396"/><polygon fill="#181818" points="545.2029,1411.1396,549.2029,1421.1396,553.2029,1411.1396,549.2029,1415.1396" style="stroke:#181818;stroke-width:1.0;"/><line style="stroke:#181818;stroke-width:1.0;" x1="549.2029" x2="549.2029" y1="1649.8818" y2="1669.8818"/><polygon fill="#181818" points="545.2029,1659.8818,549.2029,1669.8818,553.2029,1659.8818,549.2029,1663.8818" style="stroke:#181818;stroke-width:1.0;"/><line style="stroke:#181818;stroke-width:1.0;" x1="549.2029" x2="549.2029" y1="1703.8506" y2="1723.8506"/><polygon fill="#181818" points="545.2029,1713.8506,549.2029,1723.8506,553.2029,1713.8506,549.2029,1717.8506" style="stroke:#181818;stroke-width:1.0;"/><line style="stroke:#181818;stroke-width:1.0;" x1="549.2029" x2="549.2029" y1="1757.8193" y2="1777.8193"/><polygon fill="#181818" points="545.2029,1767.8193,549.2029,1777.8193,553.2029,1767.8193,549.2029,1771.8193" style="stroke:#181818;stroke-width:1.0;"/><line style="stroke:#181818;stroke-width:1.0;" x1="549.2029" x2="549.2029" y1="1811.7881" y2="1831.7881"/><polygon fill="#181818" points="545.2029,1821.7881,549.2029,1831.7881,553.2029,1821.7881,549.2029,1825.7881" style="stroke:#181818;stroke-width:1.0;"/><line style="stroke:#181818;stroke-width:1.0;" x1="549.2029" x2="549.2029" y1="1591.5107" y2="1615.9131"/><polygon fill="#181818" points="545.2029,1605.9131,549.2029,1615.9131,553.2029,1605.9131,549.2029,1609.9131" style="stroke:#181818;stroke-width:1.0;"/><line style="stroke:#181818;stroke-width:1.0;" x1="633.5891" x2="650.2263" y1="1579.5107" y2="1579.5107"/><polygon fill="#181818" points="646.2263,1730.835,650.2263,1740.835,654.2263,1730.835,650.2263,1734.835" style="stroke:#181818;stroke-width:1.0;"/><line style="stroke:#181818;stroke-width:1.0;" x1="650.2263" x2="650.2263" y1="1579.5107" y2="1897.7568"/><line style="stroke:#181818;stroke-width:1.0;" x1="650.2263" x2="561.2029" y1="1897.7568" y2="1897.7568"/><polygon fill="#181818" points="571.2029,1893.7568,561.2029,1897.7568,571.2029,1901.7568,567.2029,1897.7568" style="stroke:#181818;stroke-width:1.0;"/><line style="stroke:#181818;stroke-width:1.0;" x1="549.2029" x2="549.2029" y1="1865.7568" y2="1885.7568"/><polygon fill="#181818" points="545.2029,1875.7568,549.2029,1885.7568,553.2029,1875.7568,549.2029,1879.7568" style="stroke:#181818;stroke-width:1.0;"/><line style="stroke:#181818;stroke-width:1.0;" x1="549.2029" x2="549.2029" y1="1547.5107" y2="1567.5107"/><polygon fill="#181818" points="545.2029,1557.5107,549.2029,1567.5107,553.2029,1557.5107,549.2029,1561.5107" style="stroke:#181818;stroke-width:1.0;"/><line style="stroke:#181818;stroke-width:1.0;" x1="549.2029" x2="549.2029" y1="1234.8311" y2="1259.2334"/><polygon fill="#181818" points="545.2029,1249.2334,549.2029,1259.2334,553.2029,1249.2334,549.2029,1253.2334" style="stroke:#181818;stroke-width:1.0;"/><line style="stroke:#181818;stroke-width:1.0;" x1="658.7527" x2="672.2263" y1="1222.8311" y2="1222.8311"/><polygon fill="#181818" points="668.2263,1574.4951,672.2263,1584.4951,676.2263,1574.4951,672.2263,1578.4951" style="stroke:#181818;stroke-width:1.0;"/><line style="stroke:#181818;stroke-width:1.0;" x1="672.2263" x2="672.2263" y1="1222.8311" y2="1941.7568"/><line style="stroke:#181818;stroke-width:1.0;" x1="672.2263" x2="561.2029" y1="1941.7568" y2="1941.7568"/><polygon fill="#181818" points="571.2029,1937.7568,561.2029,1941.7568,571.2029,1945.7568,567.2029,1941.7568" style="stroke:#181818;stroke-width:1.0;"/><line style="stroke:#181818;stroke-width:1.0;" x1="549.2029" x2="549.2029" y1="1909.7568" y2="1929.7568"/><polygon fill="#181818" points="545.2029,1919.7568,549.2029,1929.7568,553.2029,1919.7568,549.2029,1923.7568" style="stroke:#181818;stroke-width:1.0;"/><line style="stroke:#181818;stroke-width:1.0;" x1="549.2029" x2="549.2029" y1="1190.8311" y2="1210.8311"/><polygon fill="#181818" points="545.2029,1200.8311,549.2029,1210.8311,553.2029,1200.8311,549.2029,1204.8311" style="stroke:#181818;stroke-width:1.0;"/><line style="stroke:#181818;stroke-width:1.0;" x1="588.4348" x2="549.2029" y1="1042.46" y2="1042.46"/><line style="stroke:#181818;stroke-width:1.0;" x1="549.2029" x2="549.2029" y1="1042.46" y2="1064.46"/><polygon fill="#181818" points="545.2029,1054.46,549.2029,1064.46,553.2029,1054.46,549.2029,1058.46" style="stroke:#181818;stroke-width:1.0;"/><line style="stroke:#181818;stroke-width:1.0;" x1="754.2854" x2="793.5173" y1="1042.46" y2="1042.46"/><line style="stroke:#181818;stroke-width:1.0;" x1="793.5173" x2="793.5173" y1="1042.46" y2="1064.46"/><polygon fill="#181818" points="789.5173,1054.46,793.5173,1064.46,797.5173,1054.46,793.5173,1058.46" style="stroke:#181818;stroke-width:1.0;"/><line style="stroke:#181818;stroke-width:1.0;" x1="549.2029" x2="549.2029" y1="1953.7568" y2="1971.7568"/><line style="stroke:#181818;stroke-width:1.0;" x1="549.2029" x2="659.3601" y1="1971.7568" y2="1971.7568"/><polygon fill="#181818" points="649.3601,1967.7568,659.3601,1971.7568,649.3601,1975.7568,653.3601,1971.7568" style="stroke:#181818;stroke-width:1.0;"/><line style="stroke:#181818;stroke-width:1.0;" x1="793.5173" x2="793.5173" y1="1098.4287" y2="1971.7568"/><line style="stroke:#181818;stroke-width:1.0;" x1="793.5173" x2="683.3601" y1="1971.7568" y2="1971.7568"/><polygon fill="#181818" points="693.3601,1967.7568,683.3601,1971.7568,693.3601,1975.7568,689.3601,1971.7568" style="stroke:#181818;stroke-width:1.0;"/><line style="stroke:#181818;stroke-width:1.0;" x1="671.3601" x2="671.3601" y1="1010.46" y2="1030.46"/><polygon fill="#181818" points="667.3601,1020.46,671.3601,1030.46,675.3601,1020.46,671.3601,1024.46" style="stroke:#181818;stroke-width:1.0;"/><line style="stroke:#181818;stroke-width:1.0;" x1="671.3601" x2="671.3601" y1="1983.7568" y2="2003.7568"/><polygon fill="#181818" points="667.3601,1993.7568,671.3601,2003.7568,675.3601,1993.7568,671.3601,1997.7568" style="stroke:#181818;stroke-width:1.0;"/><text fill="#000000" font-family="sans-serif" font-size="18" lengthAdjust="spacing" textLength="81.835" x="172.7578" y="29.4531">Hoofdtak</text><text fill="#000000" font-family="sans-serif" font-size="18" lengthAdjust="spacing" textLength="89.042" x="599.1" y="29.4531">Losse Tak</text><!--SRC=[bLHBIyD04BxdLyoj5lJefJs8Wg2W5riyU5kRILoptIcPQK7fZtScZoOcrIg449XllyVCRFPtH5aghjWdBAwK9F4Pd2q-M13Nu1byp95NRwx0a5vDGTummjcxcoO0-XZuFdhnBdXsuX5s58J8TzY8Q620sJDXgNnzzDRBl2u-khB0KTq5FZ0Q46FgirFIYWBduixaeaS1JM3P1lPLT4aKGMkovHbCAdyfmgTpUS2O2wgRIIVRYBxqoqQjdUbB_gYsyEjjg3CQi0d-XAmMJVF2MBGZLcICJEMHo3trLopH5z8ARuYzjU6RbH8n7JjvmSCfDGFDoSRGGcZJLkV7-dGzEdaEQRajW3OpgB9hd1m7hMEbJPBz0p4ZBBk5- -k-DVd7uXROslV_MUiiMFGTuPTn_oBuywIR9hXyJKB7ksY31BTIlcmoxnyJlrQv7L49by2uefXYh17LoqmjAupBSWoqmJXoe6GtrNO0-fZgC3cecXcgYGu9QxhR0QXThMEyrNeCedrRuphXeT1Ux6ebHXUwezIBLoKVC9xmttnWqALgVpMpHRq_dSlwFzDWRH6_0000]--></g></svg>