<svg xmlns="http://www.w3.org/2000/svg" xmlns:xlink="http://www.w3.org/1999/xlink" contentStyleType="text/css" height="1345px" preserveAspectRatio="none" style="width:928px;height:1345px;background:#FFFFFF;" version="1.1" viewBox="0 0 928 1345" width="928px" zoomAndPan="magnify"><defs/><g><ellipse cx="623.921" cy="20" fill="#222222" rx="10" ry="10" style="stroke:#222222;stroke-width:1.0;"/><polygon fill="#F1F1F1" points="607.0961,50,640.746,50,652.746,62,640.746,74,607.0961,74,595.0961,62,607.0961,50" style="stroke:#181818;stroke-width:0.5;"/><text fill="#000000" font-family="sans-serif" font-size="11" lengthAdjust="spacing" textLength="33.6499" x="607.0961" y="65.8081">Power</text><text fill="#000000" font-family="sans-serif" font-size="11" lengthAdjust="spacing" textLength="19.0083" x="576.0878" y="59.4058">yes</text><rect fill="#F1F1F1" height="33.9688" rx="12.5" ry="12.5" style="stroke:#181818;stroke-width:0.5;" width="90.0957" x="344.906" y="132.4023"/><text fill="#000000" font-family="sans-serif" font-size="12" lengthAdjust="spacing" textLength="70.0957" x="354.906" y="153.541">Initialiseren</text><polygon fill="#F1F1F1" points="335.0989,84,444.8088,84,456.8088,96,444.8088,108,335.0989,108,323.0989,96,335.0989,84" style="stroke:#181818;stroke-width:0.5;"/><text fill="#000000" font-family="sans-serif" font-size="11" lengthAdjust="spacing" textLength="19.0083" x="393.9539" y="118.2104">yes</text><text fill="#000000" font-family="sans-serif" font-size="11" lengthAdjust="spacing" textLength="109.71" x="335.0989" y="99.8081">Initialisatie_voltooid</text><polygon fill="#F1F1F1" points="389.9539,190.7734,401.9539,202.7734,389.9539,214.7734,377.9539,202.7734,389.9539,190.7734" style="stroke:#181818;stroke-width:0.5;"/><rect fill="#F1F1F1" height="33.9688" rx="12.5" ry="12.5" style="stroke:#181818;stroke-width:0.5;" width="162.3125" x="308.7976" y="234.7734"/><text fill="#000000" font-family="sans-serif" font-size="12" lengthAdjust="spacing" textLength="142.3125" x="318.7976" y="255.9121">'Voer de zaag lengte in'</text><rect fill="#F1F1F1" height="33.9688" rx="12.5" ry="12.5" style="stroke:#181818;stroke-width:0.5;" width="100.8359" x="339.5359" y="337.1445"/><text fill="#000000" font-family="sans-serif" font-size="12" lengthAdjust="spacing" textLength="80.8359" x="349.5359" y="358.2832">start aanvoer</text><polygon fill="#F1F1F1" points="324.6064,288.7422,455.3013,288.7422,467.3013,300.7422,455.3013,312.7422,324.6064,312.7422,312.6064,300.7422,324.6064,288.7422" style="stroke:#181818;stroke-width:0.5;"/><text fill="#000000" font-family="sans-serif" font-size="11" lengthAdjust="spacing" textLength="19.0083" x="393.9539" y="322.9526">yes</text><text fill="#000000" font-family="sans-serif" font-size="11" lengthAdjust="spacing" textLength="130.6948" x="324.6064" y="304.5503">zaag lengte veranderd?</text><polygon fill="#F1F1F1" points="389.9539,391.1133,401.9539,403.1133,389.9539,415.1133,377.9539,403.1133,389.9539,391.1133" style="stroke:#181818;stroke-width:0.5;"/><rect fill="#F1F1F1" height="33.9688" rx="12.5" ry="12.5" style="stroke:#181818;stroke-width:0.5;" width="91.3086" x="344.2996" y="435.1133"/><text fill="#000000" font-family="sans-serif" font-size="12" lengthAdjust="spacing" textLength="71.3086" x="354.2996" y="456.252">Start Zagen</text><rect fill="#F1F1F1" height="33.9688" rx="12.5" ry="12.5" style="stroke:#181818;stroke-width:0.5;" width="91.918" x="343.9949" y="489.082"/><text fill="#000000" font-family="sans-serif" font-size="12" lengthAdjust="spacing" textLength="71.918" x="353.9949" y="510.2207">Zagen klaar</text><rect fill="#F1F1F1" height="33.9688" rx="12.5" ry="12.5" style="stroke:#181818;stroke-width:0.5;" width="135.3594" x="322.2742" y="543.0508"/><text fill="#000000" font-family="sans-serif" font-size="12" lengthAdjust="spacing" textLength="115.3594" x="332.2742" y="564.1895">Start motor uitvoer</text><rect fill="#F1F1F1" height="33.9688" rx="12.5" ry="12.5" style="stroke:#181818;stroke-width:0.5;" width="196.2852" x="291.8113" y="645.4219"/><text fill="#000000" font-family="sans-serif" font-size="12" lengthAdjust="spacing" textLength="176.2852" x="301.8113" y="666.5605">gvl.AanvoerInPositie := TRUE</text><rect fill="#F1F1F1" height="33.9688" rx="12.5" ry="12.5" style="stroke:#181818;stroke-width:0.5;" width="185.9727" x="296.9675" y="699.3906"/><text fill="#000000" font-family="sans-serif" font-size="12" lengthAdjust="spacing" textLength="165.9727" x="306.9675" y="720.5293">GVL.StartAanvoer := FALSE</text><rect fill="#F1F1F1" height="33.9688" rx="12.5" ry="12.5" style="stroke:#181818;stroke-width:0.5;" width="348.6055" x="215.6511" y="753.3594"/><text fill="#000000" font-family="sans-serif" font-size="12" lengthAdjust="spacing" textLength="328.6055" x="225.6511" y="774.498">GVL.Status := 'Aanvoer in positie druk op: start zagen'</text><polygon fill="#F1F1F1" points="32,597.0195,747.9077,597.0195,759.9077,609.0195,747.9077,621.0195,32,621.0195,20,609.0195,32,597.0195" style="stroke:#181818;stroke-width:0.5;"/><text fill="#000000" font-family="sans-serif" font-size="11" lengthAdjust="spacing" textLength="19.0083" x="393.9539" y="631.23">yes</text><text fill="#000000" font-family="sans-serif" font-size="11" lengthAdjust="spacing" textLength="715.9077" x="32" y="612.8276">GVL.ZaagLengte = GVL.HuidigePositieAanvoer AND motoruitvoer = FALSE AND gvl.ZagenKlaar = FALSE AND gvl.ZaagLengte &gt; 0</text><polygon fill="#F1F1F1" points="389.9539,807.3281,401.9539,819.3281,389.9539,831.3281,377.9539,819.3281,389.9539,807.3281" style="stroke:#181818;stroke-width:0.5;"/><rect fill="#F1F1F1" height="33.9688" rx="12.5" ry="12.5" style="stroke:#181818;stroke-width:0.5;" width="189.4238" x="295.2419" y="899.7305"/><text fill="#000000" font-family="sans-serif" font-size="12" lengthAdjust="spacing" textLength="169.4238" x="305.2419" y="920.8691">gvl.Status := 'Uitvoer actief'</text><rect fill="#F1F1F1" height="33.9688" rx="12.5" ry="12.5" style="stroke:#181818;stroke-width:0.5;" width="152.0176" x="313.9451" y="968.6992"/><text fill="#000000" font-family="sans-serif" font-size="12" lengthAdjust="spacing" textLength="132.0176" x="323.9451" y="989.8379">MotorUitvoer := TRUE</text><polygon fill="#F1F1F1" points="345.4812,851.3281,434.4265,851.3281,446.4265,863.3281,434.4265,875.3281,345.4812,875.3281,333.4812,863.3281,345.4812,851.3281" style="stroke:#181818;stroke-width:0.5;"/><text fill="#000000" font-family="sans-serif" font-size="11" lengthAdjust="spacing" textLength="19.0083" x="393.9539" y="885.5386">yes</text><text fill="#000000" font-family="sans-serif" font-size="11" lengthAdjust="spacing" textLength="88.9453" x="345.4812" y="867.1362">GVL.ZagenKlaar</text><polygon fill="#F1F1F1" points="389.9539,1022.668,401.9539,1034.668,389.9539,1046.668,377.9539,1034.668,389.9539,1022.668" style="stroke:#181818;stroke-width:0.5;"/><rect fill="#F1F1F1" height="33.9688" rx="12.5" ry="12.5" style="stroke:#181818;stroke-width:0.5;" width="246.4707" x="266.7185" y="1115.0703"/><text fill="#000000" font-family="sans-serif" font-size="12" lengthAdjust="spacing" textLength="226.4707" x="276.7185" y="1136.209">GVL.Status := 'Voer de zaaglengte in'</text><rect fill="#F1F1F1" height="33.9688" rx="12.5" ry="12.5" style="stroke:#181818;stroke-width:0.5;" width="156.9805" x="311.4636" y="1184.0391"/><text fill="#000000" font-family="sans-serif" font-size="12" lengthAdjust="spacing" textLength="136.9805" x="321.4636" y="1205.1777">MotorUitvoer := FALSE</text><polygon fill="#F1F1F1" points="271.0728,1066.668,508.835,1066.668,520.835,1078.668,508.835,1090.668,271.0728,1090.668,259.0728,1078.668,271.0728,1066.668" style="stroke:#181818;stroke-width:0.5;"/><text fill="#000000" font-family="sans-serif" font-size="11" lengthAdjust="spacing" textLength="19.0083" x="393.9539" y="1100.8784">yes</text><text fill="#000000" font-family="sans-serif" font-size="11" lengthAdjust="spacing" textLength="237.7622" x="271.0728" y="1082.4761">SensorUitvoer = TRUE AND gvl.ZagenKlaar</text><polygon fill="#F1F1F1" points="389.9539,1238.0078,401.9539,1250.0078,389.9539,1262.0078,377.9539,1250.0078,389.9539,1238.0078" style="stroke:#181818;stroke-width:0.5;"/><rect fill="#F1F1F1" height="33.9688" rx="12.5" ry="12.5" style="stroke:#181818;stroke-width:0.5;" width="127.2559" x="788.2603" y="84"/><text fill="#000000" font-family="sans-serif" font-size="12" lengthAdjust="spacing" textLength="107.2559" x="798.2603" y="105.1387">stop motor invoer</text><rect fill="#F1F1F1" height="33.9688" rx="12.5" ry="12.5" style="stroke:#181818;stroke-width:0.5;" width="131.9609" x="785.9077" y="152.9688"/><text fill="#000000" font-family="sans-serif" font-size="12" lengthAdjust="spacing" textLength="111.9609" x="795.9077" y="174.1074">stop motor uitvoer</text><polygon fill="#F1F1F1" points="623.921,1268.0078,635.921,1280.0078,623.921,1292.0078,611.921,1280.0078,623.921,1268.0078" style="stroke:#181818;stroke-width:0.5;"/><ellipse cx="623.921" cy="1323.0078" fill="none" rx="11" ry="11" style="stroke:#222222;stroke-width:1.0;"/><ellipse cx="623.921" cy="1323.0078" fill="#222222" rx="6" ry="6" style="stroke:#222222;stroke-width:1.0;"/><line style="stroke:#181818;stroke-width:1.0;" x1="389.9539" x2="389.9539" y1="108" y2="132.4023"/><polygon fill="#181818" points="385.9539,122.4023,389.9539,132.4023,393.9539,122.4023,389.9539,126.4023" style="stroke:#181818;stroke-width:1.0;"/><line style="stroke:#181818;stroke-width:1.0;" x1="456.8088" x2="468.8088" y1="96" y2="96"/><polygon fill="#181818" points="464.8088,139.3867,468.8088,149.3867,472.8088,139.3867,468.8088,143.3867" style="stroke:#181818;stroke-width:1.0;"/><line style="stroke:#181818;stroke-width:1.0;" x1="468.8088" x2="468.8088" y1="96" y2="202.7734"/><line style="stroke:#181818;stroke-width:1.0;" x1="468.8088" x2="401.9539" y1="202.7734" y2="202.7734"/><polygon fill="#181818" points="411.9539,198.7734,401.9539,202.7734,411.9539,206.7734,407.9539,202.7734" style="stroke:#181818;stroke-width:1.0;"/><line style="stroke:#181818;stroke-width:1.0;" x1="389.9539" x2="389.9539" y1="166.3711" y2="190.7734"/><polygon fill="#181818" points="385.9539,180.7734,389.9539,190.7734,393.9539,180.7734,389.9539,184.7734" style="stroke:#181818;stroke-width:1.0;"/><line style="stroke:#181818;stroke-width:1.0;" x1="389.9539" x2="389.9539" y1="214.7734" y2="234.7734"/><polygon fill="#181818" points="385.9539,224.7734,389.9539,234.7734,393.9539,224.7734,389.9539,228.7734" style="stroke:#181818;stroke-width:1.0;"/><line style="stroke:#181818;stroke-width:1.0;" x1="389.9539" x2="389.9539" y1="312.7422" y2="337.1445"/><polygon fill="#181818" points="385.9539,327.1445,389.9539,337.1445,393.9539,327.1445,389.9539,331.1445" style="stroke:#181818;stroke-width:1.0;"/><line style="stroke:#181818;stroke-width:1.0;" x1="467.3013" x2="479.3013" y1="300.7422" y2="300.7422"/><polygon fill="#181818" points="475.3013,344.1289,479.3013,354.1289,483.3013,344.1289,479.3013,348.1289" style="stroke:#181818;stroke-width:1.0;"/><line style="stroke:#181818;stroke-width:1.0;" x1="479.3013" x2="479.3013" y1="300.7422" y2="403.1133"/><line style="stroke:#181818;stroke-width:1.0;" x1="479.3013" x2="401.9539" y1="403.1133" y2="403.1133"/><polygon fill="#181818" points="411.9539,399.1133,401.9539,403.1133,411.9539,407.1133,407.9539,403.1133" style="stroke:#181818;stroke-width:1.0;"/><line style="stroke:#181818;stroke-width:1.0;" x1="389.9539" x2="389.9539" y1="371.1133" y2="391.1133"/><polygon fill="#181818" points="385.9539,381.1133,389.9539,391.1133,393.9539,381.1133,389.9539,385.1133" style="stroke:#181818;stroke-width:1.0;"/><line style="stroke:#181818;stroke-width:1.0;" x1="389.9539" x2="389.9539" y1="268.7422" y2="288.7422"/><polygon fill="#181818" points="385.9539,278.7422,389.9539,288.7422,393.9539,278.7422,389.9539,282.7422" style="stroke:#181818;stroke-width:1.0;"/><line style="stroke:#181818;stroke-width:1.0;" x1="389.9539" x2="389.9539" y1="415.1133" y2="435.1133"/><polygon fill="#181818" points="385.9539,425.1133,389.9539,435.1133,393.9539,425.1133,389.9539,429.1133" style="stroke:#181818;stroke-width:1.0;"/><line style="stroke:#181818;stroke-width:1.0;" x1="389.9539" x2="389.9539" y1="469.082" y2="489.082"/><polygon fill="#181818" points="385.9539,479.082,389.9539,489.082,393.9539,479.082,389.9539,483.082" style="stroke:#181818;stroke-width:1.0;"/><line style="stroke:#181818;stroke-width:1.0;" x1="389.9539" x2="389.9539" y1="523.0508" y2="543.0508"/><polygon fill="#181818" points="385.9539,533.0508,389.9539,543.0508,393.9539,533.0508,389.9539,537.0508" style="stroke:#181818;stroke-width:1.0;"/><line style="stroke:#181818;stroke-width:1.0;" x1="389.9539" x2="389.9539" y1="679.3906" y2="699.3906"/><polygon fill="#181818" points="385.9539,689.3906,389.9539,699.3906,393.9539,689.3906,389.9539,693.3906" style="stroke:#181818;stroke-width:1.0;"/><line style="stroke:#181818;stroke-width:1.0;" x1="389.9539" x2="389.9539" y1="733.3594" y2="753.3594"/><polygon fill="#181818" points="385.9539,743.3594,389.9539,753.3594,393.9539,743.3594,389.9539,747.3594" style="stroke:#181818;stroke-width:1.0;"/><line style="stroke:#181818;stroke-width:1.0;" x1="389.9539" x2="389.9539" y1="621.0195" y2="645.4219"/><polygon fill="#181818" points="385.9539,635.4219,389.9539,645.4219,393.9539,635.4219,389.9539,639.4219" style="stroke:#181818;stroke-width:1.0;"/><line style="stroke:#181818;stroke-width:1.0;" x1="759.9077" x2="771.9077" y1="609.0195" y2="609.0195"/><polygon fill="#181818" points="767.9077,706.375,771.9077,716.375,775.9077,706.375,771.9077,710.375" style="stroke:#181818;stroke-width:1.0;"/><line style="stroke:#181818;stroke-width:1.0;" x1="771.9077" x2="771.9077" y1="609.0195" y2="819.3281"/><line style="stroke:#181818;stroke-width:1.0;" x1="771.9077" x2="401.9539" y1="819.3281" y2="819.3281"/><polygon fill="#181818" points="411.9539,815.3281,401.9539,819.3281,411.9539,823.3281,407.9539,819.3281" style="stroke:#181818;stroke-width:1.0;"/><line style="stroke:#181818;stroke-width:1.0;" x1="389.9539" x2="389.9539" y1="787.3281" y2="807.3281"/><polygon fill="#181818" points="385.9539,797.3281,389.9539,807.3281,393.9539,797.3281,389.9539,801.3281" style="stroke:#181818;stroke-width:1.0;"/><line style="stroke:#181818;stroke-width:1.0;" x1="389.9539" x2="389.9539" y1="577.0195" y2="597.0195"/><polygon fill="#181818" points="385.9539,587.0195,389.9539,597.0195,393.9539,587.0195,389.9539,591.0195" style="stroke:#181818;stroke-width:1.0;"/><line style="stroke:#181818;stroke-width:1.0;" x1="389.9539" x2="389.9539" y1="933.6992" y2="968.6992"/><polygon fill="#181818" points="385.9539,958.6992,389.9539,968.6992,393.9539,958.6992,389.9539,962.6992" style="stroke:#181818;stroke-width:1.0;"/><line style="stroke:#181818;stroke-width:1.0;" x1="389.9539" x2="389.9539" y1="875.3281" y2="899.7305"/><polygon fill="#181818" points="385.9539,889.7305,389.9539,899.7305,393.9539,889.7305,389.9539,893.7305" style="stroke:#181818;stroke-width:1.0;"/><line style="stroke:#181818;stroke-width:1.0;" x1="446.4265" x2="494.6658" y1="863.3281" y2="863.3281"/><polygon fill="#181818" points="490.6658,941.1992,494.6658,951.1992,498.6658,941.1992,494.6658,945.1992" style="stroke:#181818;stroke-width:1.0;"/><line style="stroke:#181818;stroke-width:1.0;" x1="494.6658" x2="494.6658" y1="863.3281" y2="1034.668"/><line style="stroke:#181818;stroke-width:1.0;" x1="494.6658" x2="401.9539" y1="1034.668" y2="1034.668"/><polygon fill="#181818" points="411.9539,1030.668,401.9539,1034.668,411.9539,1038.668,407.9539,1034.668" style="stroke:#181818;stroke-width:1.0;"/><line style="stroke:#181818;stroke-width:1.0;" x1="389.9539" x2="389.9539" y1="1002.668" y2="1022.668"/><polygon fill="#181818" points="385.9539,1012.668,389.9539,1022.668,393.9539,1012.668,389.9539,1016.668" style="stroke:#181818;stroke-width:1.0;"/><line style="stroke:#181818;stroke-width:1.0;" x1="389.9539" x2="389.9539" y1="831.3281" y2="851.3281"/><polygon fill="#181818" points="385.9539,841.3281,389.9539,851.3281,393.9539,841.3281,389.9539,845.3281" style="stroke:#181818;stroke-width:1.0;"/><line style="stroke:#181818;stroke-width:1.0;" x1="389.9539" x2="389.9539" y1="1149.0391" y2="1184.0391"/><polygon fill="#181818" points="385.9539,1174.0391,389.9539,1184.0391,393.9539,1174.0391,389.9539,1178.0391" style="stroke:#181818;stroke-width:1.0;"/><line style="stroke:#181818;stroke-width:1.0;" x1="389.9539" x2="389.9539" y1="1090.668" y2="1115.0703"/><polygon fill="#181818" points="385.9539,1105.0703,389.9539,1115.0703,393.9539,1105.0703,389.9539,1109.0703" style="stroke:#181818;stroke-width:1.0;"/><line style="stroke:#181818;stroke-width:1.0;" x1="520.835" x2="532.835" y1="1078.668" y2="1078.668"/><polygon fill="#181818" points="528.835,1156.5391,532.835,1166.5391,536.835,1156.5391,532.835,1160.5391" style="stroke:#181818;stroke-width:1.0;"/><line style="stroke:#181818;stroke-width:1.0;" x1="532.835" x2="532.835" y1="1078.668" y2="1250.0078"/><line style="stroke:#181818;stroke-width:1.0;" x1="532.835" x2="401.9539" y1="1250.0078" y2="1250.0078"/><polygon fill="#181818" points="411.9539,1246.0078,401.9539,1250.0078,411.9539,1254.0078,407.9539,1250.0078" style="stroke:#181818;stroke-width:1.0;"/><line style="stroke:#181818;stroke-width:1.0;" x1="389.9539" x2="389.9539" y1="1218.0078" y2="1238.0078"/><polygon fill="#181818" points="385.9539,1228.0078,389.9539,1238.0078,393.9539,1228.0078,389.9539,1232.0078" style="stroke:#181818;stroke-width:1.0;"/><line style="stroke:#181818;stroke-width:1.0;" x1="389.9539" x2="389.9539" y1="1046.668" y2="1066.668"/><polygon fill="#181818" points="385.9539,1056.668,389.9539,1066.668,393.9539,1056.668,389.9539,1060.668" style="stroke:#181818;stroke-width:1.0;"/><line style="stroke:#181818;stroke-width:1.0;" x1="851.8882" x2="851.8882" y1="117.9688" y2="152.9688"/><polygon fill="#181818" points="847.8882,142.9688,851.8882,152.9688,855.8882,142.9688,851.8882,146.9688" style="stroke:#181818;stroke-width:1.0;"/><line style="stroke:#181818;stroke-width:1.0;" x1="595.0961" x2="389.9539" y1="62" y2="62"/><line style="stroke:#181818;stroke-width:1.0;" x1="389.9539" x2="389.9539" y1="62" y2="84"/><polygon fill="#181818" points="385.9539,74,389.9539,84,393.9539,74,389.9539,78" style="stroke:#181818;stroke-width:1.0;"/><line style="stroke:#181818;stroke-width:1.0;" x1="652.746" x2="851.8882" y1="62" y2="62"/><line style="stroke:#181818;stroke-width:1.0;" x1="851.8882" x2="851.8882" y1="62" y2="84"/><polygon fill="#181818" points="847.8882,74,851.8882,84,855.8882,74,851.8882,78" style="stroke:#181818;stroke-width:1.0;"/><line style="stroke:#181818;stroke-width:1.0;" x1="389.9539" x2="389.9539" y1="1262.0078" y2="1280.0078"/><line style="stroke:#181818;stroke-width:1.0;" x1="389.9539" x2="611.921" y1="1280.0078" y2="1280.0078"/><polygon fill="#181818" points="601.921,1276.0078,611.921,1280.0078,601.921,1284.0078,605.921,1280.0078" style="stroke:#181818;stroke-width:1.0;"/><line style="stroke:#181818;stroke-width:1.0;" x1="851.8882" x2="851.8882" y1="186.9375" y2="1280.0078"/><line style="stroke:#181818;stroke-width:1.0;" x1="851.8882" x2="635.921" y1="1280.0078" y2="1280.0078"/><polygon fill="#181818" points="645.921,1276.0078,635.921,1280.0078,645.921,1284.0078,641.921,1280.0078" style="stroke:#181818;stroke-width:1.0;"/><line style="stroke:#181818;stroke-width:1.0;" x1="623.921" x2="623.921" y1="30" y2="50"/><polygon fill="#181818" points="619.921,40,623.921,50,627.921,40,623.921,44" style="stroke:#181818;stroke-width:1.0;"/><line style="stroke:#181818;stroke-width:1.0;" x1="623.921" x2="623.921" y1="1292.0078" y2="1312.0078"/><polygon fill="#181818" points="619.921,1302.0078,623.921,1312.0078,627.921,1302.0078,623.921,1306.0078" style="stroke:#181818;stroke-width:1.0;"/><!--SRC=[RL91JiCm4Bpd5NjBUwaufoge4WKg0geexQ4NPE5ji1hio7Q2wEknlKuQaagvn3FUcLcFiKpR9157c6pK3-efs2-KCFb5Cqq0tEUXjHHMi58OPWL-DAgqIWa-u09a7GyrohaxGyd5aUOG8zqhrC0HpemLKA8iB8AGwJp0QwVL1nhKJ7BK_6wiPRnpO4msRY9T9pM2jm4-iC8ReQFm0wUIiSYFf6zbbOPQM9eKCp_kyzd1USd9oWBymLCjk2XmeumBYaiIX-NhFGs9CnpvOPblLm4ecd8Mb9-zy1MeaxY5ct5CpuawQnbr8Ll0-zjk5LDuOo59woUB8lznMnkFf2rBIAZYFAxh4wWg0rhgsTjD1-ztsKcRvRhPdj8kheDzEf5ZVEFinM-gXNf91bfRbER28zgLXOvD3EBs2pVisyXBjxRE39O6ar0tLSMcYAvo_TEkF_uI5T6ZVm00]--></g></svg>