<svg xmlns="http://www.w3.org/2000/svg" xmlns:xlink="http://www.w3.org/1999/xlink" contentStyleType="text/css" height="522px" preserveAspectRatio="none" style="width:568px;height:522px;background:#FFFFFF;" version="1.1" viewBox="0 0 568 522" width="568px" zoomAndPan="magnify"><defs/><g><ellipse cx="307.3472" cy="20" fill="#222222" rx="10" ry="10" style="stroke:#222222;stroke-width:1.0;"/><polygon fill="#F1F1F1" points="161.0225,98.4023,453.6719,98.4023,465.6719,110.4023,453.6719,122.4023,161.0225,122.4023,149.0225,110.4023,161.0225,98.4023" style="stroke:#181818;stroke-width:0.5;"/><text fill="#000000" font-family="sans-serif" font-size="11" lengthAdjust="spacing" textLength="292.6494" x="161.0225" y="114.2104">Positie groter is als 0 en Initialisatie nog niet voltooid</text><text fill="#000000" font-family="sans-serif" font-size="11" lengthAdjust="spacing" textLength="9.9849" x="139.0376" y="107.8081">Ja</text><rect fill="#F1F1F1" height="33.9688" rx="12.5" ry="12.5" style="stroke:#181818;stroke-width:0.5;" width="256.0449" x="11" y="132.4023"/><text fill="#000000" font-family="sans-serif" font-size="12" lengthAdjust="spacing" textLength="236.0449" x="21" y="153.541">Stel status in op "Machine initialiseren"</text><rect fill="#F1F1F1" height="33.9688" rx="12.5" ry="12.5" style="stroke:#181818;stroke-width:0.5;" width="163.2617" x="394.041" y="132.4023"/><text fill="#000000" font-family="sans-serif" font-size="12" lengthAdjust="spacing" textLength="139.4473" x="407.8555" y="153.541">set initialisatie voltooid</text><ellipse cx="475.6719" cy="197.3711" fill="none" rx="11" ry="11" style="stroke:#222222;stroke-width:1.0;"/><ellipse cx="475.6719" cy="197.3711" fill="#222222" rx="6" ry="6" style="stroke:#222222;stroke-width:1.0;"/><rect fill="#F1F1F1" height="33.9688" rx="12.5" ry="12.5" style="stroke:#181818;stroke-width:0.5;" width="129.2891" x="242.7026" y="228.3711"/><text fill="#000000" font-family="sans-serif" font-size="12" lengthAdjust="spacing" textLength="109.2891" x="252.7026" y="249.5098">start invoer motor</text><rect fill="#F1F1F1" height="33.9688" rx="12.5" ry="12.5" style="stroke:#181818;stroke-width:0.5;" width="120.3477" x="247.1733" y="326.3398"/><text fill="#000000" font-family="sans-serif" font-size="12" lengthAdjust="spacing" textLength="100.3477" x="257.1733" y="347.4785">Invoer nog bezig</text><polygon fill="#F1F1F1" points="307.3472,282.3398,319.3472,294.3398,307.3472,306.3398,295.3472,294.3398,307.3472,282.3398" style="stroke:#181818;stroke-width:0.5;"/><polygon fill="#F1F1F1" points="226.48,380.3086,388.2144,380.3086,400.2144,392.3086,388.2144,404.3086,226.48,404.3086,214.48,392.3086,226.48,380.3086" style="stroke:#181818;stroke-width:0.5;"/><text fill="#000000" font-family="sans-serif" font-size="11" lengthAdjust="spacing" textLength="9.7969" x="311.3472" y="414.519">ja</text><text fill="#000000" font-family="sans-serif" font-size="11" lengthAdjust="spacing" textLength="161.7344" x="226.48" y="396.1167">Huidige positie is gelijk aan 0</text><text fill="#000000" font-family="sans-serif" font-size="11" lengthAdjust="spacing" textLength="20.5068" x="400.2144" y="389.7144">nee</text><rect fill="#F1F1F1" height="33.9688" rx="12.5" ry="12.5" style="stroke:#181818;stroke-width:0.5;" width="180.2012" x="217.2466" y="436.019"/><text fill="#000000" font-family="sans-serif" font-size="12" lengthAdjust="spacing" textLength="160.2012" x="227.2466" y="457.1577">set initialisatie als voltooid</text><polygon fill="#F1F1F1" points="176.6013,50,438.093,50,450.093,62,438.093,74,176.6013,74,164.6013,62,176.6013,50" style="stroke:#181818;stroke-width:0.5;"/><text fill="#000000" font-family="sans-serif" font-size="11" lengthAdjust="spacing" textLength="20.5068" x="311.3472" y="84.2104">nee</text><text fill="#000000" font-family="sans-serif" font-size="11" lengthAdjust="spacing" textLength="261.4917" x="176.6013" y="65.8081">Controleer of de initialisatie nog niet voltooid is</text><ellipse cx="483.093" cy="62" fill="none" rx="11" ry="11" style="stroke:#222222;stroke-width:1.0;"/><ellipse cx="483.093" cy="62" fill="#222222" rx="6" ry="6" style="stroke:#222222;stroke-width:1.0;"/><ellipse cx="307.3472" cy="500.9878" fill="none" rx="11" ry="11" style="stroke:#222222;stroke-width:1.0;"/><ellipse cx="307.3472" cy="500.9878" fill="#222222" rx="6" ry="6" style="stroke:#222222;stroke-width:1.0;"/><line style="stroke:#181818;stroke-width:1.0;" x1="475.6719" x2="475.6719" y1="166.3711" y2="186.3711"/><polygon fill="#181818" points="471.6719,176.3711,475.6719,186.3711,479.6719,176.3711,475.6719,180.3711" style="stroke:#181818;stroke-width:1.0;"/><line style="stroke:#181818;stroke-width:1.0;" x1="149.0225" x2="139.0225" y1="110.4023" y2="110.4023"/><line style="stroke:#181818;stroke-width:1.0;" x1="139.0225" x2="139.0225" y1="110.4023" y2="132.4023"/><polygon fill="#181818" points="135.0225,122.4023,139.0225,132.4023,143.0225,122.4023,139.0225,126.4023" style="stroke:#181818;stroke-width:1.0;"/><line style="stroke:#181818;stroke-width:1.0;" x1="465.6719" x2="475.6719" y1="110.4023" y2="110.4023"/><line style="stroke:#181818;stroke-width:1.0;" x1="475.6719" x2="475.6719" y1="110.4023" y2="132.4023"/><polygon fill="#181818" points="471.6719,122.4023,475.6719,132.4023,479.6719,122.4023,475.6719,126.4023" style="stroke:#181818;stroke-width:1.0;"/><line style="stroke:#181818;stroke-width:1.0;" x1="139.0225" x2="139.0225" y1="166.3711" y2="213.3711"/><line style="stroke:#181818;stroke-width:1.0;" x1="139.0225" x2="307.3472" y1="213.3711" y2="213.3711"/><line style="stroke:#181818;stroke-width:1.0;" x1="307.3472" x2="307.3472" y1="213.3711" y2="228.3711"/><polygon fill="#181818" points="303.3472,218.3711,307.3472,228.3711,311.3472,218.3711,307.3472,222.3711" style="stroke:#181818;stroke-width:1.0;"/><line style="stroke:#181818;stroke-width:1.0;" x1="307.3472" x2="307.3472" y1="306.3398" y2="326.3398"/><polygon fill="#181818" points="303.3472,316.3398,307.3472,326.3398,311.3472,316.3398,307.3472,320.3398" style="stroke:#181818;stroke-width:1.0;"/><line style="stroke:#181818;stroke-width:1.0;" x1="400.2144" x2="412.2144" y1="392.3086" y2="392.3086"/><polygon fill="#181818" points="408.2144,353.3242,412.2144,343.3242,416.2144,353.3242,412.2144,349.3242" style="stroke:#181818;stroke-width:1.0;"/><line style="stroke:#181818;stroke-width:1.0;" x1="412.2144" x2="412.2144" y1="294.3398" y2="392.3086"/><line style="stroke:#181818;stroke-width:1.0;" x1="412.2144" x2="319.3472" y1="294.3398" y2="294.3398"/><polygon fill="#181818" points="329.3472,290.3398,319.3472,294.3398,329.3472,298.3398,325.3472,294.3398" style="stroke:#181818;stroke-width:1.0;"/><line style="stroke:#181818;stroke-width:1.0;" x1="307.3472" x2="307.3472" y1="360.3086" y2="380.3086"/><polygon fill="#181818" points="303.3472,370.3086,307.3472,380.3086,311.3472,370.3086,307.3472,374.3086" style="stroke:#181818;stroke-width:1.0;"/><line style="stroke:#181818;stroke-width:1.0;" x1="307.3472" x2="307.3472" y1="262.3398" y2="282.3398"/><polygon fill="#181818" points="303.3472,272.3398,307.3472,282.3398,311.3472,272.3398,307.3472,276.3398" style="stroke:#181818;stroke-width:1.0;"/><line style="stroke:#181818;stroke-width:1.0;" x1="307.3472" x2="307.3472" y1="404.3086" y2="436.019"/><polygon fill="#181818" points="303.3472,426.019,307.3472,436.019,311.3472,426.019,307.3472,430.019" style="stroke:#181818;stroke-width:1.0;"/><line style="stroke:#181818;stroke-width:1.0;" x1="307.3472" x2="307.3472" y1="74" y2="98.4023"/><polygon fill="#181818" points="303.3472,88.4023,307.3472,98.4023,311.3472,88.4023,307.3472,92.4023" style="stroke:#181818;stroke-width:1.0;"/><line style="stroke:#181818;stroke-width:1.0;" x1="450.093" x2="472.093" y1="62" y2="62"/><polygon fill="#181818" points="462.093,58,472.093,62,462.093,66,466.093,62" style="stroke:#181818;stroke-width:1.0;"/><line style="stroke:#181818;stroke-width:1.0;" x1="307.3472" x2="307.3472" y1="469.9878" y2="489.9878"/><polygon fill="#181818" points="303.3472,479.9878,307.3472,489.9878,311.3472,479.9878,307.3472,483.9878" style="stroke:#181818;stroke-width:1.0;"/><line style="stroke:#181818;stroke-width:1.0;" x1="307.3472" x2="307.3472" y1="30" y2="50"/><polygon fill="#181818" points="303.3472,40,307.3472,50,311.3472,40,307.3472,44" style="stroke:#181818;stroke-width:1.0;"/><!--SRC=[VP31JiCm44Jl_efHJycjv_J8XI8X8V45BjaaMumtycwBrA-lDw4KX8HFbZqp-tRKOh4GU43p8DcA9A826T0JEBDnJApHc91bH6Ood2MP2FTWRM4JPJIPg0qX09xp8ifk68jOpM95J8ejgd3_V-8jxYcsDSjFzsgKe1Rjf9K7CcFp7DycpZ_mg53UxAg3aj9YxA0rzZV_RSXkKQZ9x8xSyn1MZteLrNIMIlqX9iMbXMQAvefkltuvze4kFDw_yJbn8ZIF9-vv9CnV5TJTHqfyV4UC6TlM7vQoQeYXENxlwUF_47jjT-gmRBTmhzH-lG80]--></g></svg>