<svg xmlns="http://www.w3.org/2000/svg" xmlns:xlink="http://www.w3.org/1999/xlink" contentStyleType="text/css" height="485px" preserveAspectRatio="none" style="width:681px;height:485px;background:#FFFFFF;" version="1.1" viewBox="0 0 681 485" width="681px" zoomAndPan="magnify"><defs/><g><ellipse cx="424.1318" cy="20" fill="#222222" rx="10" ry="10" style="stroke:#222222;stroke-width:1.0;"/><polygon fill="#F1F1F1" points="353.2065,50,495.0571,50,507.0571,62,495.0571,74,353.2065,74,341.2065,62,353.2065,50" style="stroke:#181818;stroke-width:0.5;"/><text fill="#000000" font-family="sans-serif" font-size="11" lengthAdjust="spacing" textLength="141.8506" x="353.2065" y="65.8081">Systeem is ingeschakeld?</text><text fill="#000000" font-family="sans-serif" font-size="11" lengthAdjust="spacing" textLength="9.7969" x="331.4097" y="59.4058">ja</text><text fill="#000000" font-family="sans-serif" font-size="11" lengthAdjust="spacing" textLength="20.5068" x="507.0571" y="59.4058">nee</text><polygon fill="#F1F1F1" points="157.9404,84,353.04,84,365.04,96,353.04,108,157.9404,108,145.9404,96,157.9404,84" style="stroke:#181818;stroke-width:0.5;"/><text fill="#000000" font-family="sans-serif" font-size="11" lengthAdjust="spacing" textLength="195.0996" x="157.9404" y="99.8081">Aanvoer in positie en zaag gestart?</text><text fill="#000000" font-family="sans-serif" font-size="11" lengthAdjust="spacing" textLength="20.5068" x="125.4336" y="93.4058">nee</text><rect fill="#F1F1F1" height="33.9688" rx="12.5" ry="12.5" style="stroke:#181818;stroke-width:0.5;" width="249.8809" x="11" y="118"/><text fill="#000000" font-family="sans-serif" font-size="12" lengthAdjust="spacing" textLength="229.8809" x="21" y="139.1387">Toon status: 'Voer eerst een lengte in'</text><rect fill="#F1F1F1" height="33.9688" rx="12.5" ry="12.5" style="stroke:#181818;stroke-width:0.5;" width="117.7637" x="316.1582" y="118"/><text fill="#000000" font-family="sans-serif" font-size="12" lengthAdjust="spacing" textLength="97.7637" x="326.1582" y="139.1387">Start zaagmotor</text><rect fill="#F1F1F1" height="33.9688" rx="12.5" ry="12.5" style="stroke:#181818;stroke-width:0.5;" width="172.7188" x="288.6807" y="215.9688"/><text fill="#000000" font-family="sans-serif" font-size="12" lengthAdjust="spacing" textLength="152.7188" x="298.6807" y="237.1074">Toon status: 'Zaag actief'</text><polygon fill="#F1F1F1" points="375.04,171.9688,387.04,183.9688,375.04,195.9688,363.04,183.9688,375.04,171.9688" style="stroke:#181818;stroke-width:0.5;"/><polygon fill="#F1F1F1" points="302.6538,269.9375,447.4263,269.9375,459.4263,281.9375,447.4263,293.9375,302.6538,293.9375,290.6538,281.9375,302.6538,269.9375" style="stroke:#181818;stroke-width:0.5;"/><text fill="#000000" font-family="sans-serif" font-size="11" lengthAdjust="spacing" textLength="9.7969" x="379.04" y="304.1479">ja</text><text fill="#000000" font-family="sans-serif" font-size="11" lengthAdjust="spacing" textLength="144.7725" x="302.6538" y="285.7456">Eindaanslag zaag bereikt?</text><text fill="#000000" font-family="sans-serif" font-size="11" lengthAdjust="spacing" textLength="20.5068" x="459.4263" y="279.3433">nee</text><rect fill="#F1F1F1" height="33.9688" rx="12.5" ry="12.5" style="stroke:#181818;stroke-width:0.5;" width="115.7305" x="317.1748" y="325.6479"/><text fill="#000000" font-family="sans-serif" font-size="12" lengthAdjust="spacing" textLength="95.7305" x="327.1748" y="346.7866">Stop zaagmotor</text><rect fill="#F1F1F1" height="33.9688" rx="12.5" ry="12.5" style="stroke:#181818;stroke-width:0.5;" width="130.3438" x="309.8682" y="379.6167"/><text fill="#000000" font-family="sans-serif" font-size="12" lengthAdjust="spacing" textLength="110.3438" x="319.8682" y="400.7554">set zagen voltooid</text><polygon fill="#F1F1F1" points="255.4902,419.5854,267.4902,431.5854,255.4902,443.5854,243.4902,431.5854,255.4902,419.5854" style="stroke:#181818;stroke-width:0.5;"/><rect fill="#F1F1F1" height="33.9688" rx="12.5" ry="12.5" style="stroke:#181818;stroke-width:0.5;" width="154.748" x="515.3994" y="84"/><text fill="#000000" font-family="sans-serif" font-size="12" lengthAdjust="spacing" textLength="134.748" x="525.3994" y="105.1387">Schakel zaagmotor uit</text><polygon fill="#F1F1F1" points="424.1318,449.5854,436.1318,461.5854,424.1318,473.5854,412.1318,461.5854,424.1318,449.5854" style="stroke:#181818;stroke-width:0.5;"/><line style="stroke:#181818;stroke-width:1.0;" x1="375.04" x2="375.04" y1="195.9688" y2="215.9688"/><polygon fill="#181818" points="371.04,205.9688,375.04,215.9688,379.04,205.9688,375.04,209.9688" style="stroke:#181818;stroke-width:1.0;"/><line style="stroke:#181818;stroke-width:1.0;" x1="459.4263" x2="473.3994" y1="281.9375" y2="281.9375"/><polygon fill="#181818" points="469.3994,242.9531,473.3994,232.9531,477.3994,242.9531,473.3994,238.9531" style="stroke:#181818;stroke-width:1.0;"/><line style="stroke:#181818;stroke-width:1.0;" x1="473.3994" x2="473.3994" y1="183.9688" y2="281.9375"/><line style="stroke:#181818;stroke-width:1.0;" x1="473.3994" x2="387.04" y1="183.9688" y2="183.9688"/><polygon fill="#181818" points="397.04,179.9688,387.04,183.9688,397.04,187.9688,393.04,183.9688" style="stroke:#181818;stroke-width:1.0;"/><line style="stroke:#181818;stroke-width:1.0;" x1="375.04" x2="375.04" y1="249.9375" y2="269.9375"/><polygon fill="#181818" points="371.04,259.9375,375.04,269.9375,379.04,259.9375,375.04,263.9375" style="stroke:#181818;stroke-width:1.0;"/><line style="stroke:#181818;stroke-width:1.0;" x1="375.04" x2="375.04" y1="151.9688" y2="171.9688"/><polygon fill="#181818" points="371.04,161.9688,375.04,171.9688,379.04,161.9688,375.04,165.9688" style="stroke:#181818;stroke-width:1.0;"/><line style="stroke:#181818;stroke-width:1.0;" x1="375.04" x2="375.04" y1="293.9375" y2="325.6479"/><polygon fill="#181818" points="371.04,315.6479,375.04,325.6479,379.04,315.6479,375.04,319.6479" style="stroke:#181818;stroke-width:1.0;"/><line style="stroke:#181818;stroke-width:1.0;" x1="375.04" x2="375.04" y1="359.6167" y2="379.6167"/><polygon fill="#181818" points="371.04,369.6167,375.04,379.6167,379.04,369.6167,375.04,373.6167" style="stroke:#181818;stroke-width:1.0;"/><line style="stroke:#181818;stroke-width:1.0;" x1="145.9404" x2="135.9404" y1="96" y2="96"/><line style="stroke:#181818;stroke-width:1.0;" x1="135.9404" x2="135.9404" y1="96" y2="118"/><polygon fill="#181818" points="131.9404,108,135.9404,118,139.9404,108,135.9404,112" style="stroke:#181818;stroke-width:1.0;"/><line style="stroke:#181818;stroke-width:1.0;" x1="365.04" x2="375.04" y1="96" y2="96"/><line style="stroke:#181818;stroke-width:1.0;" x1="375.04" x2="375.04" y1="96" y2="118"/><polygon fill="#181818" points="371.04,108,375.04,118,379.04,108,375.04,112" style="stroke:#181818;stroke-width:1.0;"/><line style="stroke:#181818;stroke-width:1.0;" x1="135.9404" x2="135.9404" y1="151.9688" y2="431.5854"/><line style="stroke:#181818;stroke-width:1.0;" x1="135.9404" x2="243.4902" y1="431.5854" y2="431.5854"/><polygon fill="#181818" points="233.4902,427.5854,243.4902,431.5854,233.4902,435.5854,237.4902,431.5854" style="stroke:#181818;stroke-width:1.0;"/><line style="stroke:#181818;stroke-width:1.0;" x1="375.04" x2="375.04" y1="413.5854" y2="431.5854"/><line style="stroke:#181818;stroke-width:1.0;" x1="375.04" x2="267.4902" y1="431.5854" y2="431.5854"/><polygon fill="#181818" points="277.4902,427.5854,267.4902,431.5854,277.4902,435.5854,273.4902,431.5854" style="stroke:#181818;stroke-width:1.0;"/><line style="stroke:#181818;stroke-width:1.0;" x1="341.2065" x2="255.4902" y1="62" y2="62"/><line style="stroke:#181818;stroke-width:1.0;" x1="255.4902" x2="255.4902" y1="62" y2="84"/><polygon fill="#181818" points="251.4902,74,255.4902,84,259.4902,74,255.4902,78" style="stroke:#181818;stroke-width:1.0;"/><line style="stroke:#181818;stroke-width:1.0;" x1="507.0571" x2="592.7734" y1="62" y2="62"/><line style="stroke:#181818;stroke-width:1.0;" x1="592.7734" x2="592.7734" y1="62" y2="84"/><polygon fill="#181818" points="588.7734,74,592.7734,84,596.7734,74,592.7734,78" style="stroke:#181818;stroke-width:1.0;"/><line style="stroke:#181818;stroke-width:1.0;" x1="255.4902" x2="255.4902" y1="443.5854" y2="461.5854"/><line style="stroke:#181818;stroke-width:1.0;" x1="255.4902" x2="412.1318" y1="461.5854" y2="461.5854"/><polygon fill="#181818" points="402.1318,457.5854,412.1318,461.5854,402.1318,465.5854,406.1318,461.5854" style="stroke:#181818;stroke-width:1.0;"/><line style="stroke:#181818;stroke-width:1.0;" x1="592.7734" x2="592.7734" y1="117.9688" y2="461.5854"/><line style="stroke:#181818;stroke-width:1.0;" x1="592.7734" x2="436.1318" y1="461.5854" y2="461.5854"/><polygon fill="#181818" points="446.1318,457.5854,436.1318,461.5854,446.1318,465.5854,442.1318,461.5854" style="stroke:#181818;stroke-width:1.0;"/><line style="stroke:#181818;stroke-width:1.0;" x1="424.1318" x2="424.1318" y1="30" y2="50"/><polygon fill="#181818" points="420.1318,40,424.1318,50,428.1318,40,424.1318,44" style="stroke:#181818;stroke-width:1.0;"/><!--SRC=[RL4nRiCm3Dpr2cwsls0FHOU-m4M7RcnCssmKqf2O5EthIoce4nGH1044xuvtL3PC5dY6TlpEHdG2pi2oK3wiUAGuFNLWAmcqdzW50By01VwCSb5AZeLDCniJEEe7SG4d5zMTAKHTvPNJlweAEC3EkOVchMWGfMp-2aIInSX5cw4oA6QwKSSYMsUSr3GDUoVHHcXx-M3EUp661xSvD_zvyBLo96XVM2P4oT6XDSW79U9Z2U9BgJ50rFvMSJThDDqU-QhDJCNpukak6asLfnrmpIWJpo6Kg7UxwiVh1znauSmsX8h-1G00]--></g></svg>