<svg xmlns="http://www.w3.org/2000/svg" xmlns:xlink="http://www.w3.org/1999/xlink" contentStyleType="text/css" height="1052px" preserveAspectRatio="none" style="width:545px;height:1052px;background:#FFFFFF;" version="1.1" viewBox="0 0 545 1052" width="545px" zoomAndPan="magnify"><defs/><g><ellipse cx="325.347" cy="20" fill="#222222" rx="10" ry="10" style="stroke:#222222;stroke-width:1.0;"/><polygon fill="#F1F1F1" points="254.4218,50,396.2723,50,408.2723,62,396.2723,74,254.4218,74,242.4218,62,254.4218,50" style="stroke:#181818;stroke-width:0.5;"/><text fill="#000000" font-family="sans-serif" font-size="11" lengthAdjust="spacing" textLength="141.8506" x="254.4218" y="65.8081">Systeem is ingeschakeld?</text><text fill="#000000" font-family="sans-serif" font-size="11" lengthAdjust="spacing" textLength="9.7969" x="232.6249" y="59.4058">ja</text><rect fill="#F1F1F1" height="33.9688" rx="12.5" ry="12.5" style="stroke:#181818;stroke-width:0.5;" width="121.4258" x="125.0803" y="141"/><text fill="#000000" font-family="sans-serif" font-size="12" lengthAdjust="spacing" textLength="101.4258" x="135.0803" y="162.1387">initialisatie bezig</text><polygon fill="#F1F1F1" points="185.7932,84,197.7932,96,185.7932,108,173.7932,96,185.7932,84" style="stroke:#181818;stroke-width:0.5;"/><polygon fill="#F1F1F1" points="129.0208,194.9688,242.5657,194.9688,254.5657,206.9688,242.5657,218.9688,129.0208,218.9688,117.0208,206.9688,129.0208,194.9688" style="stroke:#181818;stroke-width:0.5;"/><text fill="#000000" font-family="sans-serif" font-size="11" lengthAdjust="spacing" textLength="9.7969" x="189.7932" y="229.1792">ja</text><text fill="#000000" font-family="sans-serif" font-size="11" lengthAdjust="spacing" textLength="113.5449" x="129.0208" y="210.7769">Initialisatie voltooid?</text><text fill="#000000" font-family="sans-serif" font-size="11" lengthAdjust="spacing" textLength="20.5068" x="254.5657" y="204.3745">nee</text><rect fill="#F1F1F1" height="33.9688" rx="12.5" ry="12.5" style="stroke:#181818;stroke-width:0.5;" width="236.6621" x="67.4622" y="250.6792"/><text fill="#000000" font-family="sans-serif" font-size="12" lengthAdjust="spacing" textLength="216.6621" x="77.4622" y="271.8179">Toon status: 'Voer de zaaglengte in'</text><rect fill="#F1F1F1" height="33.9688" rx="12.5" ry="12.5" style="stroke:#181818;stroke-width:0.5;" width="102.2012" x="134.6926" y="304.6479"/><text fill="#000000" font-family="sans-serif" font-size="12" lengthAdjust="spacing" textLength="82.2012" x="144.6926" y="325.7866">Start aanvoer</text><rect fill="#F1F1F1" height="33.9688" rx="12.5" ry="12.5" style="stroke:#181818;stroke-width:0.5;" width="166.5313" x="102.5276" y="402.6167"/><text fill="#000000" font-family="sans-serif" font-size="12" lengthAdjust="spacing" textLength="146.5313" x="112.5276" y="423.7554">taak in- en uitvoer bezig</text><polygon fill="#F1F1F1" points="185.7932,358.6167,197.7932,370.6167,185.7932,382.6167,173.7932,370.6167,185.7932,358.6167" style="stroke:#181818;stroke-width:0.5;"/><polygon fill="#F1F1F1" points="32,456.5854,339.5864,456.5854,351.5864,468.5854,339.5864,480.5854,32,480.5854,20,468.5854,32,456.5854" style="stroke:#181818;stroke-width:0.5;"/><text fill="#000000" font-family="sans-serif" font-size="11" lengthAdjust="spacing" textLength="9.7969" x="189.7932" y="490.7959">ja</text><text fill="#000000" font-family="sans-serif" font-size="11" lengthAdjust="spacing" textLength="307.5864" x="32" y="472.3936">Zaaglengte bereikt aanvoer positie en aanvoer gereed?</text><text fill="#000000" font-family="sans-serif" font-size="11" lengthAdjust="spacing" textLength="20.5068" x="351.5864" y="465.9912">nee</text><rect fill="#F1F1F1" height="33.9688" rx="12.5" ry="12.5" style="stroke:#181818;stroke-width:0.5;" width="151.127" x="110.2297" y="512.2959"/><text fill="#000000" font-family="sans-serif" font-size="12" lengthAdjust="spacing" textLength="131.127" x="120.2297" y="533.4346">Set aanvoer in positie</text><rect fill="#F1F1F1" height="33.9688" rx="12.5" ry="12.5" style="stroke:#181818;stroke-width:0.5;" width="100.168" x="135.7092" y="566.2646"/><text fill="#000000" font-family="sans-serif" font-size="12" lengthAdjust="spacing" textLength="80.168" x="145.7092" y="587.4033">Stop aanvoer</text><rect fill="#F1F1F1" height="33.9688" rx="12.5" ry="12.5" style="stroke:#181818;stroke-width:0.5;" width="345.9102" x="12.8381" y="620.2334"/><text fill="#000000" font-family="sans-serif" font-size="12" lengthAdjust="spacing" textLength="325.9102" x="22.8381" y="641.3721">Toon status: 'Aanvoer in positie, druk op: 'start zagen'</text><rect fill="#F1F1F1" height="33.9688" rx="12.5" ry="12.5" style="stroke:#181818;stroke-width:0.5;" width="122.498" x="124.5442" y="718.2021"/><text fill="#000000" font-family="sans-serif" font-size="12" lengthAdjust="spacing" textLength="102.498" x="134.5442" y="739.3408">taak zagen bezig</text><polygon fill="#F1F1F1" points="185.7932,674.2021,197.7932,686.2021,185.7932,698.2021,173.7932,686.2021,185.7932,674.2021" style="stroke:#181818;stroke-width:0.5;"/><polygon fill="#F1F1F1" points="150.7925,772.1709,220.7939,772.1709,232.7939,784.1709,220.7939,796.1709,150.7925,796.1709,138.7925,784.1709,150.7925,772.1709" style="stroke:#181818;stroke-width:0.5;"/><text fill="#000000" font-family="sans-serif" font-size="11" lengthAdjust="spacing" textLength="9.7969" x="189.7932" y="806.3813">ja</text><text fill="#000000" font-family="sans-serif" font-size="11" lengthAdjust="spacing" textLength="70.0015" x="150.7925" y="787.979">zagen klaar?</text><text fill="#000000" font-family="sans-serif" font-size="11" lengthAdjust="spacing" textLength="20.5068" x="232.7939" y="781.5767">nee</text><rect fill="#F1F1F1" height="33.9688" rx="12.5" ry="12.5" style="stroke:#181818;stroke-width:0.5;" width="94.168" x="138.7092" y="827.8813"/><text fill="#000000" font-family="sans-serif" font-size="12" lengthAdjust="spacing" textLength="74.168" x="148.7092" y="849.02">start uitvoer</text><rect fill="#F1F1F1" height="33.9688" rx="12.5" ry="12.5" style="stroke:#181818;stroke-width:0.5;" width="153.1074" x="109.2395" y="881.8501"/><text fill="#000000" font-family="sans-serif" font-size="12" lengthAdjust="spacing" textLength="133.1074" x="119.2395" y="902.9888">sensor uitvoer is hoog</text><rect fill="#F1F1F1" height="33.9688" rx="12.5" ry="12.5" style="stroke:#181818;stroke-width:0.5;" width="95.9492" x="137.8186" y="935.8188"/><text fill="#000000" font-family="sans-serif" font-size="12" lengthAdjust="spacing" textLength="72.1348" x="151.6331" y="956.9575">stop uitvoer</text><rect fill="#F1F1F1" height="33.9688" rx="12.5" ry="12.5" style="stroke:#181818;stroke-width:0.5;" width="138.6289" x="395.5864" y="84"/><text fill="#000000" font-family="sans-serif" font-size="12" lengthAdjust="spacing" textLength="118.6289" x="405.5864" y="105.1387">stop aanvoer motor</text><rect fill="#F1F1F1" height="33.9688" rx="12.5" ry="12.5" style="stroke:#181818;stroke-width:0.5;" width="131.9609" x="398.9204" y="137.9688"/><text fill="#000000" font-family="sans-serif" font-size="12" lengthAdjust="spacing" textLength="111.9609" x="408.9204" y="159.1074">stop uitvoer motor</text><polygon fill="#F1F1F1" points="325.347,975.7876,337.347,987.7876,325.347,999.7876,313.347,987.7876,325.347,975.7876" style="stroke:#181818;stroke-width:0.5;"/><ellipse cx="325.347" cy="1030.7876" fill="none" rx="11" ry="11" style="stroke:#222222;stroke-width:1.0;"/><ellipse cx="325.347" cy="1030.7876" fill="#222222" rx="6" ry="6" style="stroke:#222222;stroke-width:1.0;"/><line style="stroke:#181818;stroke-width:1.0;" x1="185.7932" x2="185.7932" y1="108" y2="141"/><polygon fill="#181818" points="181.7932,131,185.7932,141,189.7932,131,185.7932,135" style="stroke:#181818;stroke-width:1.0;"/><line style="stroke:#181818;stroke-width:1.0;" x1="254.5657" x2="266.5657" y1="206.9688" y2="206.9688"/><polygon fill="#181818" points="262.5657,167.9844,266.5657,157.9844,270.5657,167.9844,266.5657,163.9844" style="stroke:#181818;stroke-width:1.0;"/><line style="stroke:#181818;stroke-width:1.0;" x1="266.5657" x2="266.5657" y1="96" y2="206.9688"/><line style="stroke:#181818;stroke-width:1.0;" x1="266.5657" x2="197.7932" y1="96" y2="96"/><polygon fill="#181818" points="207.7932,92,197.7932,96,207.7932,100,203.7932,96" style="stroke:#181818;stroke-width:1.0;"/><line style="stroke:#181818;stroke-width:1.0;" x1="185.7932" x2="185.7932" y1="174.9688" y2="194.9688"/><polygon fill="#181818" points="181.7932,184.9688,185.7932,194.9688,189.7932,184.9688,185.7932,188.9688" style="stroke:#181818;stroke-width:1.0;"/><line style="stroke:#181818;stroke-width:1.0;" x1="185.7932" x2="185.7932" y1="218.9688" y2="250.6792"/><polygon fill="#181818" points="181.7932,240.6792,185.7932,250.6792,189.7932,240.6792,185.7932,244.6792" style="stroke:#181818;stroke-width:1.0;"/><line style="stroke:#181818;stroke-width:1.0;" x1="185.7932" x2="185.7932" y1="284.6479" y2="304.6479"/><polygon fill="#181818" points="181.7932,294.6479,185.7932,304.6479,189.7932,294.6479,185.7932,298.6479" style="stroke:#181818;stroke-width:1.0;"/><line style="stroke:#181818;stroke-width:1.0;" x1="185.7932" x2="185.7932" y1="382.6167" y2="402.6167"/><polygon fill="#181818" points="181.7932,392.6167,185.7932,402.6167,189.7932,392.6167,185.7932,396.6167" style="stroke:#181818;stroke-width:1.0;"/><line style="stroke:#181818;stroke-width:1.0;" x1="351.5864" x2="363.5864" y1="468.5854" y2="468.5854"/><polygon fill="#181818" points="359.5864,429.6011,363.5864,419.6011,367.5864,429.6011,363.5864,425.6011" style="stroke:#181818;stroke-width:1.0;"/><line style="stroke:#181818;stroke-width:1.0;" x1="363.5864" x2="363.5864" y1="370.6167" y2="468.5854"/><line style="stroke:#181818;stroke-width:1.0;" x1="363.5864" x2="197.7932" y1="370.6167" y2="370.6167"/><polygon fill="#181818" points="207.7932,366.6167,197.7932,370.6167,207.7932,374.6167,203.7932,370.6167" style="stroke:#181818;stroke-width:1.0;"/><line style="stroke:#181818;stroke-width:1.0;" x1="185.7932" x2="185.7932" y1="436.5854" y2="456.5854"/><polygon fill="#181818" points="181.7932,446.5854,185.7932,456.5854,189.7932,446.5854,185.7932,450.5854" style="stroke:#181818;stroke-width:1.0;"/><line style="stroke:#181818;stroke-width:1.0;" x1="185.7932" x2="185.7932" y1="338.6167" y2="358.6167"/><polygon fill="#181818" points="181.7932,348.6167,185.7932,358.6167,189.7932,348.6167,185.7932,352.6167" style="stroke:#181818;stroke-width:1.0;"/><line style="stroke:#181818;stroke-width:1.0;" x1="185.7932" x2="185.7932" y1="480.5854" y2="512.2959"/><polygon fill="#181818" points="181.7932,502.2959,185.7932,512.2959,189.7932,502.2959,185.7932,506.2959" style="stroke:#181818;stroke-width:1.0;"/><line style="stroke:#181818;stroke-width:1.0;" x1="185.7932" x2="185.7932" y1="546.2646" y2="566.2646"/><polygon fill="#181818" points="181.7932,556.2646,185.7932,566.2646,189.7932,556.2646,185.7932,560.2646" style="stroke:#181818;stroke-width:1.0;"/><line style="stroke:#181818;stroke-width:1.0;" x1="185.7932" x2="185.7932" y1="600.2334" y2="620.2334"/><polygon fill="#181818" points="181.7932,610.2334,185.7932,620.2334,189.7932,610.2334,185.7932,614.2334" style="stroke:#181818;stroke-width:1.0;"/><line style="stroke:#181818;stroke-width:1.0;" x1="185.7932" x2="185.7932" y1="698.2021" y2="718.2021"/><polygon fill="#181818" points="181.7932,708.2021,185.7932,718.2021,189.7932,708.2021,185.7932,712.2021" style="stroke:#181818;stroke-width:1.0;"/><line style="stroke:#181818;stroke-width:1.0;" x1="232.7939" x2="259.0422" y1="784.1709" y2="784.1709"/><polygon fill="#181818" points="255.0422,745.1865,259.0422,735.1865,263.0422,745.1865,259.0422,741.1865" style="stroke:#181818;stroke-width:1.0;"/><line style="stroke:#181818;stroke-width:1.0;" x1="259.0422" x2="259.0422" y1="686.2021" y2="784.1709"/><line style="stroke:#181818;stroke-width:1.0;" x1="259.0422" x2="197.7932" y1="686.2021" y2="686.2021"/><polygon fill="#181818" points="207.7932,682.2021,197.7932,686.2021,207.7932,690.2021,203.7932,686.2021" style="stroke:#181818;stroke-width:1.0;"/><line style="stroke:#181818;stroke-width:1.0;" x1="185.7932" x2="185.7932" y1="752.1709" y2="772.1709"/><polygon fill="#181818" points="181.7932,762.1709,185.7932,772.1709,189.7932,762.1709,185.7932,766.1709" style="stroke:#181818;stroke-width:1.0;"/><line style="stroke:#181818;stroke-width:1.0;" x1="185.7932" x2="185.7932" y1="654.2021" y2="674.2021"/><polygon fill="#181818" points="181.7932,664.2021,185.7932,674.2021,189.7932,664.2021,185.7932,668.2021" style="stroke:#181818;stroke-width:1.0;"/><line style="stroke:#181818;stroke-width:1.0;" x1="185.7932" x2="185.7932" y1="796.1709" y2="827.8813"/><polygon fill="#181818" points="181.7932,817.8813,185.7932,827.8813,189.7932,817.8813,185.7932,821.8813" style="stroke:#181818;stroke-width:1.0;"/><line style="stroke:#181818;stroke-width:1.0;" x1="185.7932" x2="185.7932" y1="861.8501" y2="881.8501"/><polygon fill="#181818" points="181.7932,871.8501,185.7932,881.8501,189.7932,871.8501,185.7932,875.8501" style="stroke:#181818;stroke-width:1.0;"/><line style="stroke:#181818;stroke-width:1.0;" x1="185.7932" x2="185.7932" y1="915.8188" y2="935.8188"/><polygon fill="#181818" points="181.7932,925.8188,185.7932,935.8188,189.7932,925.8188,185.7932,929.8188" style="stroke:#181818;stroke-width:1.0;"/><line style="stroke:#181818;stroke-width:1.0;" x1="464.9009" x2="464.9009" y1="117.9688" y2="137.9688"/><polygon fill="#181818" points="460.9009,127.9688,464.9009,137.9688,468.9009,127.9688,464.9009,131.9688" style="stroke:#181818;stroke-width:1.0;"/><line style="stroke:#181818;stroke-width:1.0;" x1="242.4218" x2="185.7932" y1="62" y2="62"/><line style="stroke:#181818;stroke-width:1.0;" x1="185.7932" x2="185.7932" y1="62" y2="84"/><polygon fill="#181818" points="181.7932,74,185.7932,84,189.7932,74,185.7932,78" style="stroke:#181818;stroke-width:1.0;"/><line style="stroke:#181818;stroke-width:1.0;" x1="408.2723" x2="464.9009" y1="62" y2="62"/><line style="stroke:#181818;stroke-width:1.0;" x1="464.9009" x2="464.9009" y1="62" y2="84"/><polygon fill="#181818" points="460.9009,74,464.9009,84,468.9009,74,464.9009,78" style="stroke:#181818;stroke-width:1.0;"/><line style="stroke:#181818;stroke-width:1.0;" x1="185.7932" x2="185.7932" y1="969.7876" y2="987.7876"/><line style="stroke:#181818;stroke-width:1.0;" x1="185.7932" x2="313.347" y1="987.7876" y2="987.7876"/><polygon fill="#181818" points="303.347,983.7876,313.347,987.7876,303.347,991.7876,307.347,987.7876" style="stroke:#181818;stroke-width:1.0;"/><line style="stroke:#181818;stroke-width:1.0;" x1="464.9009" x2="464.9009" y1="171.9375" y2="987.7876"/><line style="stroke:#181818;stroke-width:1.0;" x1="464.9009" x2="337.347" y1="987.7876" y2="987.7876"/><polygon fill="#181818" points="347.347,983.7876,337.347,987.7876,347.347,991.7876,343.347,987.7876" style="stroke:#181818;stroke-width:1.0;"/><line style="stroke:#181818;stroke-width:1.0;" x1="325.347" x2="325.347" y1="30" y2="50"/><polygon fill="#181818" points="321.347,40,325.347,50,329.347,40,325.347,44" style="stroke:#181818;stroke-width:1.0;"/><line style="stroke:#181818;stroke-width:1.0;" x1="325.347" x2="325.347" y1="999.7876" y2="1019.7876"/><polygon fill="#181818" points="321.347,1009.7876,325.347,1019.7876,329.347,1009.7876,325.347,1013.7876" style="stroke:#181818;stroke-width:1.0;"/><!--SRC=[VP6zRiCm38HtFmMtE43x0lPGTEoSeaCtfcPirefeI7IAvkbB-JyDMa-6T3n-TugAGJC-GNxuZafq1ex0lgRuqM1BhdhQWpRa8V_4VGOGg2DK-odOip8wZgXCSAGhr-KYWA-67K7-SYEwY5CHJfws9VT4U_2YipT0ydqLyH0LjOy5xDw40bG4LyJQaQ-LZ6wN5XM7X0w8_cAQCXiCDe2cKCJMv8zW_3rhqgsWlr7Vrmr72iJjuWsTH4xyPZCVrIQXluCaF5eDsCyUvNAjqgtmq-5jzkUxwGUeGj-2T7ORX_XNh6dimzgREjXKC7zZ5ODusy1z2wEaTOZXdt2JwOWmDJipZ3VaeuIbTFDfHAQbXIMqxFDOUdHoaOR7ZvjMu2mgWssn7LYFqw2l-6IviwJu0G00]--></g></svg>